<?xml version="1.0" encoding="utf-8" standalone="no"?>
<!DOCTYPE svg PUBLIC "-//W3C//DTD SVG 1.1//EN"
  "http://www.w3.org/Graphics/SVG/1.1/DTD/svg11.dtd">
<svg xmlns:xlink="http://www.w3.org/1999/xlink" width="856.8pt" height="311.638313pt" viewBox="0 0 856.8 311.638313" xmlns="http://www.w3.org/2000/svg" version="1.1">
 <metadata>
  <rdf:RDF xmlns:dc="http://purl.org/dc/elements/1.1/" xmlns:cc="http://creativecommons.org/ns#" xmlns:rdf="http://www.w3.org/1999/02/22-rdf-syntax-ns#">
   <cc:Work>
    <dc:type rdf:resource="http://purl.org/dc/dcmitype/StillImage"/>
    <dc:date>2026-01-31T12:46:02.913249</dc:date>
    <dc:format>image/svg+xml</dc:format>
    <dc:creator>
     <cc:Agent>
      <dc:title>Matplotlib v3.7.5, https://matplotlib.org/</dc:title>
     </cc:Agent>
    </dc:creator>
   </cc:Work>
  </rdf:RDF>
 </metadata>
 <defs>
  <style type="text/css">*{stroke-linejoin: round; stroke-linecap: butt}</style>
 </defs>
 <g id="figure_1">
  <g id="patch_1">
   <path d="M 0 311.638313 
L 856.8 311.638313 
L 856.8 0 
L 0 0 
z
" style="fill: #ffffff"/>
  </g>
  <g id="axes_1">
   <g id="patch_2">
    <path d="M 52.364652 80.080364 
Q 87.162456 80.080364 120.171407 80.080364 
" clip-path="url(#pbe1dff848a)" style="fill: none; stroke: #444444; stroke-width: 1.6; stroke-linecap: round"/>
    <path d="M 115.371407 77.680364 
L 120.171407 80.080364 
L 115.371407 82.480364 
z
" clip-path="url(#pbe1dff848a)" style="fill: #444444; stroke: #444444; stroke-width: 1.6; stroke-linecap: round"/>
   </g>
   <g id="patch_3">
    <path d="M 139.279941 80.080364 
Q 174.077746 80.080364 207.086696 80.080364 
" clip-path="url(#pbe1dff848a)" style="fill: none; stroke: #444444; stroke-width: 1.6; stroke-linecap: round"/>
    <path d="M 202.286696 77.680364 
L 207.086696 80.080364 
L 202.286696 82.480364 
z
" clip-path="url(#pbe1dff848a)" style="fill: #444444; stroke: #444444; stroke-width: 1.6; stroke-linecap: round"/>
   </g>
   <g id="patch_4">
    <path d="M 134.6501 87.743964 
Q 174.077213 162.712821 212.671674 236.098425 
" clip-path="url(#pbe1dff848a)" style="fill: none; stroke: #444444; stroke-width: 1.6; stroke-linecap: round"/>
    <path d="M 212.561586 230.732991 
L 212.671674 236.098425 
L 208.313274 232.967235 
z
" clip-path="url(#pbe1dff848a)" style="fill: #444444; stroke: #444444; stroke-width: 1.6; stroke-linecap: round"/>
   </g>
   <g id="patch_5">
    <path d="M 226.19523 80.080364 
Q 260.993035 80.080364 294.001985 80.080364 
" clip-path="url(#pbe1dff848a)" style="fill: none; stroke: #444444; stroke-width: 1.6; stroke-linecap: round"/>
    <path d="M 289.201985 77.680364 
L 294.001985 80.080364 
L 289.201985 82.480364 
z
" clip-path="url(#pbe1dff848a)" style="fill: #444444; stroke: #444444; stroke-width: 1.6; stroke-linecap: round"/>
   </g>
   <g id="patch_6">
    <path d="M 226.19523 245.345818 
Q 260.993035 245.345818 294.001985 245.345818 
" clip-path="url(#pbe1dff848a)" style="fill: none; stroke: #444444; stroke-width: 1.6; stroke-linecap: round"/>
    <path d="M 289.201985 242.945818 
L 294.001985 245.345818 
L 289.201985 247.745818 
z
" clip-path="url(#pbe1dff848a)" style="fill: #444444; stroke: #444444; stroke-width: 1.6; stroke-linecap: round"/>
   </g>
   <g id="patch_7">
    <path d="M 313.110519 245.345818 
Q 347.908324 245.345818 380.917275 245.345818 
" clip-path="url(#pbe1dff848a)" style="fill: none; stroke: #444444; stroke-width: 1.6; stroke-linecap: round"/>
    <path d="M 376.117275 242.945818 
L 380.917275 245.345818 
L 376.117275 247.745818 
z
" clip-path="url(#pbe1dff848a)" style="fill: #444444; stroke: #444444; stroke-width: 1.6; stroke-linecap: round"/>
   </g>
   <g id="patch_8">
    <path d="M 217.535 278.398909 
C 224.450061 278.398909 231.08283 274.916227 235.972517 268.717883 
C 240.862204 262.519539 243.609587 254.1116 243.609587 245.345818 
C 243.609587 236.580036 240.862204 228.172097 235.972517 221.973753 
C 231.08283 215.775409 224.450061 212.292727 217.535 212.292727 
C 210.619939 212.292727 203.98717 215.775409 199.097483 221.973753 
C 194.207796 228.172097 191.460413 236.580036 191.460413 245.345818 
C 191.460413 254.1116 194.207796 262.519539 199.097483 268.717883 
C 203.98717 274.916227 210.619939 278.398909 217.535 278.398909 
L 217.535 278.398909 
z
" clip-path="url(#pbe1dff848a)" style="fill: none; stroke-dasharray: 6,4; stroke-dashoffset: 0; stroke: #d62728; stroke-width: 2; stroke-linejoin: miter"/>
   </g>
   <g id="PathCollection_1">
    <defs>
     <path id="m6239c30729" d="M 0 15 
C 3.978047 15 7.793698 13.419505 10.606602 10.606602 
C 13.419505 7.793698 15 3.978047 15 0 
C 15 -3.978047 13.419505 -7.793698 10.606602 -10.606602 
C 7.793698 -13.419505 3.978047 -15 0 -15 
C -3.978047 -15 -7.793698 -13.419505 -10.606602 -10.606602 
C -13.419505 -7.793698 -15 -3.978047 -15 0 
C -15 3.978047 -13.419505 7.793698 -10.606602 10.606602 
C -7.793698 13.419505 -3.978047 15 0 15 
z
" style="stroke: #222222; stroke-width: 1.2"/>
    </defs>
    <g clip-path="url(#pbe1dff848a)">
     <use xlink:href="#m6239c30729" x="43.704421" y="80.080364" style="fill: #1f77b4; stroke: #222222; stroke-width: 1.2"/>
     <use xlink:href="#m6239c30729" x="130.619711" y="80.080364" style="fill: #1f77b4; stroke: #222222; stroke-width: 1.2"/>
     <use xlink:href="#m6239c30729" x="304.450289" y="80.080364" style="fill: #1f77b4; stroke: #222222; stroke-width: 1.2"/>
     <use xlink:href="#m6239c30729" x="391.365579" y="245.345818" style="fill: #1f77b4; stroke: #222222; stroke-width: 1.2"/>
    </g>
   </g>
   <g id="PathCollection_2">
    <defs>
     <path id="m18ca4bce3d" d="M 0 15 
C 3.978047 15 7.793698 13.419505 10.606602 10.606602 
C 13.419505 7.793698 15 3.978047 15 0 
C 15 -3.978047 13.419505 -7.793698 10.606602 -10.606602 
C 7.793698 -13.419505 3.978047 -15 0 -15 
C -3.978047 -15 -7.793698 -13.419505 -10.606602 -10.606602 
C -13.419505 -7.793698 -15 -3.978047 -15 0 
C -15 3.978047 -13.419505 7.793698 -10.606602 10.606602 
C -7.793698 13.419505 -3.978047 15 0 15 
z
" style="stroke: #9e9e9e; stroke-width: 2"/>
    </defs>
    <g clip-path="url(#pbe1dff848a)">
     <use xlink:href="#m18ca4bce3d" x="217.535" y="80.080364" style="fill: #ffffff; stroke: #9e9e9e; stroke-width: 2"/>
     <use xlink:href="#m18ca4bce3d" x="304.450289" y="245.345818" style="fill: #ffffff; stroke: #9e9e9e; stroke-width: 2"/>
    </g>
   </g>
   <g id="PathCollection_3">
    <defs>
     <path id="m6d79c281fe" d="M 0 15 
C 3.978047 15 7.793698 13.419505 10.606602 10.606602 
C 13.419505 7.793698 15 3.978047 15 0 
C 15 -3.978047 13.419505 -7.793698 10.606602 -10.606602 
C 7.793698 -13.419505 3.978047 -15 0 -15 
C -3.978047 -15 -7.793698 -13.419505 -10.606602 -10.606602 
C -13.419505 -7.793698 -15 -3.978047 -15 0 
C -15 3.978047 -13.419505 7.793698 -10.606602 10.606602 
C -7.793698 13.419505 -3.978047 15 0 15 
z
" style="stroke: #d62728; stroke-width: 2"/>
    </defs>
    <g clip-path="url(#pbe1dff848a)">
     <use xlink:href="#m6d79c281fe" x="217.535" y="245.345818" style="fill: #ffffff; stroke: #d62728; stroke-width: 2"/>
    </g>
   </g>
   <g id="text_1">
    <g clip-path="url(#pbe1dff848a)">
     <!-- M1 -->
     <g style="fill: #111111" transform="translate(36.95864 82.563801) scale(0.09 -0.09)">
      <defs>
       <path id="DejaVuSans-4d" d="M 628 4666 
L 1569 4666 
L 2759 1491 
L 3956 4666 
L 4897 4666 
L 4897 0 
L 4281 0 
L 4281 4097 
L 3078 897 
L 2444 897 
L 1241 4097 
L 1241 0 
L 628 0 
L 628 4666 
z
" transform="scale(0.015625)"/>
       <path id="DejaVuSans-31" d="M 794 531 
L 1825 531 
L 1825 4091 
L 703 3866 
L 703 4441 
L 1819 4666 
L 2450 4666 
L 2450 531 
L 3481 531 
L 3481 0 
L 794 0 
L 794 531 
z
" transform="scale(0.015625)"/>
      </defs>
      <use xlink:href="#DejaVuSans-4d"/>
      <use xlink:href="#DejaVuSans-31" x="86.279297"/>
     </g>
    </g>
   </g>
   <g id="text_2">
    <g clip-path="url(#pbe1dff848a)">
     <!-- M2 -->
     <g style="fill: #111111" transform="translate(123.873929 82.563801) scale(0.09 -0.09)">
      <defs>
       <path id="DejaVuSans-32" d="M 1228 531 
L 3431 531 
L 3431 0 
L 469 0 
L 469 531 
Q 828 903 1448 1529 
Q 2069 2156 2228 2338 
Q 2531 2678 2651 2914 
Q 2772 3150 2772 3378 
Q 2772 3750 2511 3984 
Q 2250 4219 1831 4219 
Q 1534 4219 1204 4116 
Q 875 4013 500 3803 
L 500 4441 
Q 881 4594 1212 4672 
Q 1544 4750 1819 4750 
Q 2544 4750 2975 4387 
Q 3406 4025 3406 3419 
Q 3406 3131 3298 2873 
Q 3191 2616 2906 2266 
Q 2828 2175 2409 1742 
Q 1991 1309 1228 531 
z
" transform="scale(0.015625)"/>
      </defs>
      <use xlink:href="#DejaVuSans-4d"/>
      <use xlink:href="#DejaVuSans-32" x="86.279297"/>
     </g>
    </g>
   </g>
   <g id="text_3">
    <g clip-path="url(#pbe1dff848a)">
     <!-- M3 -->
     <g style="fill: #111111" transform="translate(210.789219 82.563801) scale(0.09 -0.09)">
      <defs>
       <path id="DejaVuSans-33" d="M 2597 2516 
Q 3050 2419 3304 2112 
Q 3559 1806 3559 1356 
Q 3559 666 3084 287 
Q 2609 -91 1734 -91 
Q 1441 -91 1130 -33 
Q 819 25 488 141 
L 488 750 
Q 750 597 1062 519 
Q 1375 441 1716 441 
Q 2309 441 2620 675 
Q 2931 909 2931 1356 
Q 2931 1769 2642 2001 
Q 2353 2234 1838 2234 
L 1294 2234 
L 1294 2753 
L 1863 2753 
Q 2328 2753 2575 2939 
Q 2822 3125 2822 3475 
Q 2822 3834 2567 4026 
Q 2313 4219 1838 4219 
Q 1578 4219 1281 4162 
Q 984 4106 628 3988 
L 628 4550 
Q 988 4650 1302 4700 
Q 1616 4750 1894 4750 
Q 2613 4750 3031 4423 
Q 3450 4097 3450 3541 
Q 3450 3153 3228 2886 
Q 3006 2619 2597 2516 
z
" transform="scale(0.015625)"/>
      </defs>
      <use xlink:href="#DejaVuSans-4d"/>
      <use xlink:href="#DejaVuSans-33" x="86.279297"/>
     </g>
    </g>
   </g>
   <g id="text_4">
    <g clip-path="url(#pbe1dff848a)">
     <!-- M4 -->
     <g style="fill: #111111" transform="translate(297.704508 82.563801) scale(0.09 -0.09)">
      <defs>
       <path id="DejaVuSans-34" d="M 2419 4116 
L 825 1625 
L 2419 1625 
L 2419 4116 
z
M 2253 4666 
L 3047 4666 
L 3047 1625 
L 3713 1625 
L 3713 1100 
L 3047 1100 
L 3047 0 
L 2419 0 
L 2419 1100 
L 313 1100 
L 313 1709 
L 2253 4666 
z
" transform="scale(0.015625)"/>
      </defs>
      <use xlink:href="#DejaVuSans-4d"/>
      <use xlink:href="#DejaVuSans-34" x="86.279297"/>
     </g>
    </g>
   </g>
   <g id="text_5">
    <g clip-path="url(#pbe1dff848a)">
     <!-- M5 -->
     <g style="fill: #111111" transform="translate(210.789219 247.829256) scale(0.09 -0.09)">
      <defs>
       <path id="DejaVuSans-35" d="M 691 4666 
L 3169 4666 
L 3169 4134 
L 1269 4134 
L 1269 2991 
Q 1406 3038 1543 3061 
Q 1681 3084 1819 3084 
Q 2600 3084 3056 2656 
Q 3513 2228 3513 1497 
Q 3513 744 3044 326 
Q 2575 -91 1722 -91 
Q 1428 -91 1123 -41 
Q 819 9 494 109 
L 494 744 
Q 775 591 1075 516 
Q 1375 441 1709 441 
Q 2250 441 2565 725 
Q 2881 1009 2881 1497 
Q 2881 1984 2565 2268 
Q 2250 2553 1709 2553 
Q 1456 2553 1204 2497 
Q 953 2441 691 2322 
L 691 4666 
z
" transform="scale(0.015625)"/>
      </defs>
      <use xlink:href="#DejaVuSans-4d"/>
      <use xlink:href="#DejaVuSans-35" x="86.279297"/>
     </g>
    </g>
   </g>
   <g id="text_6">
    <g clip-path="url(#pbe1dff848a)">
     <!-- M6 -->
     <g style="fill: #111111" transform="translate(297.704508 247.829256) scale(0.09 -0.09)">
      <defs>
       <path id="DejaVuSans-36" d="M 2113 2584 
Q 1688 2584 1439 2293 
Q 1191 2003 1191 1497 
Q 1191 994 1439 701 
Q 1688 409 2113 409 
Q 2538 409 2786 701 
Q 3034 994 3034 1497 
Q 3034 2003 2786 2293 
Q 2538 2584 2113 2584 
z
M 3366 4563 
L 3366 3988 
Q 3128 4100 2886 4159 
Q 2644 4219 2406 4219 
Q 1781 4219 1451 3797 
Q 1122 3375 1075 2522 
Q 1259 2794 1537 2939 
Q 1816 3084 2150 3084 
Q 2853 3084 3261 2657 
Q 3669 2231 3669 1497 
Q 3669 778 3244 343 
Q 2819 -91 2113 -91 
Q 1303 -91 875 529 
Q 447 1150 447 2328 
Q 447 3434 972 4092 
Q 1497 4750 2381 4750 
Q 2619 4750 2861 4703 
Q 3103 4656 3366 4563 
z
" transform="scale(0.015625)"/>
      </defs>
      <use xlink:href="#DejaVuSans-4d"/>
      <use xlink:href="#DejaVuSans-36" x="86.279297"/>
     </g>
    </g>
   </g>
   <g id="text_7">
    <g clip-path="url(#pbe1dff848a)">
     <!-- M7 -->
     <g style="fill: #111111" transform="translate(384.619797 247.829256) scale(0.09 -0.09)">
      <defs>
       <path id="DejaVuSans-37" d="M 525 4666 
L 3525 4666 
L 3525 4397 
L 1831 0 
L 1172 0 
L 2766 4134 
L 525 4134 
L 525 4666 
z
" transform="scale(0.015625)"/>
      </defs>
      <use xlink:href="#DejaVuSans-4d"/>
      <use xlink:href="#DejaVuSans-37" x="86.279297"/>
     </g>
    </g>
   </g>
   <g id="patch_9">
    <path d="M 160.020674 80.709708 
Q 187.779129 80.405964 213.860634 80.12057 
" style="fill: none; stroke: #000000; stroke-width: 1.5; stroke-linecap: round"/>
    <path d="M 209.83899 78.164457 
L 213.860634 80.12057 
L 209.882757 82.164217 
" style="fill: none; stroke: #000000; stroke-width: 1.5; stroke-linecap: round"/>
   </g>
   <g id="text_8">
    <!-- candidate measurements -->
    <g transform="translate(28.2335 84.212) scale(0.1 -0.1)">
     <defs>
      <path id="DejaVuSans-63" d="M 3122 3366 
L 3122 2828 
Q 2878 2963 2633 3030 
Q 2388 3097 2138 3097 
Q 1578 3097 1268 2742 
Q 959 2388 959 1747 
Q 959 1106 1268 751 
Q 1578 397 2138 397 
Q 2388 397 2633 464 
Q 2878 531 3122 666 
L 3122 134 
Q 2881 22 2623 -34 
Q 2366 -91 2075 -91 
Q 1284 -91 818 406 
Q 353 903 353 1747 
Q 353 2603 823 3093 
Q 1294 3584 2113 3584 
Q 2378 3584 2631 3529 
Q 2884 3475 3122 3366 
z
" transform="scale(0.015625)"/>
      <path id="DejaVuSans-61" d="M 2194 1759 
Q 1497 1759 1228 1600 
Q 959 1441 959 1056 
Q 959 750 1161 570 
Q 1363 391 1709 391 
Q 2188 391 2477 730 
Q 2766 1069 2766 1631 
L 2766 1759 
L 2194 1759 
z
M 3341 1997 
L 3341 0 
L 2766 0 
L 2766 531 
Q 2569 213 2275 61 
Q 1981 -91 1556 -91 
Q 1019 -91 701 211 
Q 384 513 384 1019 
Q 384 1609 779 1909 
Q 1175 2209 1959 2209 
L 2766 2209 
L 2766 2266 
Q 2766 2663 2505 2880 
Q 2244 3097 1772 3097 
Q 1472 3097 1187 3025 
Q 903 2953 641 2809 
L 641 3341 
Q 956 3463 1253 3523 
Q 1550 3584 1831 3584 
Q 2591 3584 2966 3190 
Q 3341 2797 3341 1997 
z
" transform="scale(0.015625)"/>
      <path id="DejaVuSans-6e" d="M 3513 2113 
L 3513 0 
L 2938 0 
L 2938 2094 
Q 2938 2591 2744 2837 
Q 2550 3084 2163 3084 
Q 1697 3084 1428 2787 
Q 1159 2491 1159 1978 
L 1159 0 
L 581 0 
L 581 3500 
L 1159 3500 
L 1159 2956 
Q 1366 3272 1645 3428 
Q 1925 3584 2291 3584 
Q 2894 3584 3203 3211 
Q 3513 2838 3513 2113 
z
" transform="scale(0.015625)"/>
      <path id="DejaVuSans-64" d="M 2906 2969 
L 2906 4863 
L 3481 4863 
L 3481 0 
L 2906 0 
L 2906 525 
Q 2725 213 2448 61 
Q 2172 -91 1784 -91 
Q 1150 -91 751 415 
Q 353 922 353 1747 
Q 353 2572 751 3078 
Q 1150 3584 1784 3584 
Q 2172 3584 2448 3432 
Q 2725 3281 2906 2969 
z
M 947 1747 
Q 947 1113 1208 752 
Q 1469 391 1925 391 
Q 2381 391 2643 752 
Q 2906 1113 2906 1747 
Q 2906 2381 2643 2742 
Q 2381 3103 1925 3103 
Q 1469 3103 1208 2742 
Q 947 2381 947 1747 
z
" transform="scale(0.015625)"/>
      <path id="DejaVuSans-69" d="M 603 3500 
L 1178 3500 
L 1178 0 
L 603 0 
L 603 3500 
z
M 603 4863 
L 1178 4863 
L 1178 4134 
L 603 4134 
L 603 4863 
z
" transform="scale(0.015625)"/>
      <path id="DejaVuSans-74" d="M 1172 4494 
L 1172 3500 
L 2356 3500 
L 2356 3053 
L 1172 3053 
L 1172 1153 
Q 1172 725 1289 603 
Q 1406 481 1766 481 
L 2356 481 
L 2356 0 
L 1766 0 
Q 1100 0 847 248 
Q 594 497 594 1153 
L 594 3053 
L 172 3053 
L 172 3500 
L 594 3500 
L 594 4494 
L 1172 4494 
z
" transform="scale(0.015625)"/>
      <path id="DejaVuSans-65" d="M 3597 1894 
L 3597 1613 
L 953 1613 
Q 991 1019 1311 708 
Q 1631 397 2203 397 
Q 2534 397 2845 478 
Q 3156 559 3463 722 
L 3463 178 
Q 3153 47 2828 -22 
Q 2503 -91 2169 -91 
Q 1331 -91 842 396 
Q 353 884 353 1716 
Q 353 2575 817 3079 
Q 1281 3584 2069 3584 
Q 2775 3584 3186 3129 
Q 3597 2675 3597 1894 
z
M 3022 2063 
Q 3016 2534 2758 2815 
Q 2500 3097 2075 3097 
Q 1594 3097 1305 2825 
Q 1016 2553 972 2059 
L 3022 2063 
z
" transform="scale(0.015625)"/>
      <path id="DejaVuSans-20" transform="scale(0.015625)"/>
      <path id="DejaVuSans-6d" d="M 3328 2828 
Q 3544 3216 3844 3400 
Q 4144 3584 4550 3584 
Q 5097 3584 5394 3201 
Q 5691 2819 5691 2113 
L 5691 0 
L 5113 0 
L 5113 2094 
Q 5113 2597 4934 2840 
Q 4756 3084 4391 3084 
Q 3944 3084 3684 2787 
Q 3425 2491 3425 1978 
L 3425 0 
L 2847 0 
L 2847 2094 
Q 2847 2600 2669 2842 
Q 2491 3084 2119 3084 
Q 1678 3084 1418 2786 
Q 1159 2488 1159 1978 
L 1159 0 
L 581 0 
L 581 3500 
L 1159 3500 
L 1159 2956 
Q 1356 3278 1631 3431 
Q 1906 3584 2284 3584 
Q 2666 3584 2933 3390 
Q 3200 3197 3328 2828 
z
" transform="scale(0.015625)"/>
      <path id="DejaVuSans-73" d="M 2834 3397 
L 2834 2853 
Q 2591 2978 2328 3040 
Q 2066 3103 1784 3103 
Q 1356 3103 1142 2972 
Q 928 2841 928 2578 
Q 928 2378 1081 2264 
Q 1234 2150 1697 2047 
L 1894 2003 
Q 2506 1872 2764 1633 
Q 3022 1394 3022 966 
Q 3022 478 2636 193 
Q 2250 -91 1575 -91 
Q 1294 -91 989 -36 
Q 684 19 347 128 
L 347 722 
Q 666 556 975 473 
Q 1284 391 1588 391 
Q 1994 391 2212 530 
Q 2431 669 2431 922 
Q 2431 1156 2273 1281 
Q 2116 1406 1581 1522 
L 1381 1569 
Q 847 1681 609 1914 
Q 372 2147 372 2553 
Q 372 3047 722 3315 
Q 1072 3584 1716 3584 
Q 2034 3584 2315 3537 
Q 2597 3491 2834 3397 
z
" transform="scale(0.015625)"/>
      <path id="DejaVuSans-75" d="M 544 1381 
L 544 3500 
L 1119 3500 
L 1119 1403 
Q 1119 906 1312 657 
Q 1506 409 1894 409 
Q 2359 409 2629 706 
Q 2900 1003 2900 1516 
L 2900 3500 
L 3475 3500 
L 3475 0 
L 2900 0 
L 2900 538 
Q 2691 219 2414 64 
Q 2138 -91 1772 -91 
Q 1169 -91 856 284 
Q 544 659 544 1381 
z
M 1991 3584 
L 1991 3584 
z
" transform="scale(0.015625)"/>
      <path id="DejaVuSans-72" d="M 2631 2963 
Q 2534 3019 2420 3045 
Q 2306 3072 2169 3072 
Q 1681 3072 1420 2755 
Q 1159 2438 1159 1844 
L 1159 0 
L 581 0 
L 581 3500 
L 1159 3500 
L 1159 2956 
Q 1341 3275 1631 3429 
Q 1922 3584 2338 3584 
Q 2397 3584 2469 3576 
Q 2541 3569 2628 3553 
L 2631 2963 
z
" transform="scale(0.015625)"/>
     </defs>
     <use xlink:href="#DejaVuSans-63"/>
     <use xlink:href="#DejaVuSans-61" x="54.980469"/>
     <use xlink:href="#DejaVuSans-6e" x="116.259766"/>
     <use xlink:href="#DejaVuSans-64" x="179.638672"/>
     <use xlink:href="#DejaVuSans-69" x="243.115234"/>
     <use xlink:href="#DejaVuSans-64" x="270.898438"/>
     <use xlink:href="#DejaVuSans-61" x="334.375"/>
     <use xlink:href="#DejaVuSans-74" x="395.654297"/>
     <use xlink:href="#DejaVuSans-65" x="434.863281"/>
     <use xlink:href="#DejaVuSans-20" x="496.386719"/>
     <use xlink:href="#DejaVuSans-6d" x="528.173828"/>
     <use xlink:href="#DejaVuSans-65" x="625.585938"/>
     <use xlink:href="#DejaVuSans-61" x="687.109375"/>
     <use xlink:href="#DejaVuSans-73" x="748.388672"/>
     <use xlink:href="#DejaVuSans-75" x="800.488281"/>
     <use xlink:href="#DejaVuSans-72" x="863.867188"/>
     <use xlink:href="#DejaVuSans-65" x="902.730469"/>
     <use xlink:href="#DejaVuSans-6d" x="964.253906"/>
     <use xlink:href="#DejaVuSans-65" x="1061.666016"/>
     <use xlink:href="#DejaVuSans-6e" x="1123.189453"/>
     <use xlink:href="#DejaVuSans-74" x="1186.568359"/>
     <use xlink:href="#DejaVuSans-73" x="1225.777344"/>
    </g>
   </g>
   <g id="text_9">
    <!-- (A) Pathway graph with unmeasured nodes -->
    <g transform="translate(87.928438 55.488) scale(0.12 -0.12)">
     <defs>
      <path id="DejaVuSans-28" d="M 1984 4856 
Q 1566 4138 1362 3434 
Q 1159 2731 1159 2009 
Q 1159 1288 1364 580 
Q 1569 -128 1984 -844 
L 1484 -844 
Q 1016 -109 783 600 
Q 550 1309 550 2009 
Q 550 2706 781 3412 
Q 1013 4119 1484 4856 
L 1984 4856 
z
" transform="scale(0.015625)"/>
      <path id="DejaVuSans-41" d="M 2188 4044 
L 1331 1722 
L 3047 1722 
L 2188 4044 
z
M 1831 4666 
L 2547 4666 
L 4325 0 
L 3669 0 
L 3244 1197 
L 1141 1197 
L 716 0 
L 50 0 
L 1831 4666 
z
" transform="scale(0.015625)"/>
      <path id="DejaVuSans-29" d="M 513 4856 
L 1013 4856 
Q 1481 4119 1714 3412 
Q 1947 2706 1947 2009 
Q 1947 1309 1714 600 
Q 1481 -109 1013 -844 
L 513 -844 
Q 928 -128 1133 580 
Q 1338 1288 1338 2009 
Q 1338 2731 1133 3434 
Q 928 4138 513 4856 
z
" transform="scale(0.015625)"/>
      <path id="DejaVuSans-50" d="M 1259 4147 
L 1259 2394 
L 2053 2394 
Q 2494 2394 2734 2622 
Q 2975 2850 2975 3272 
Q 2975 3691 2734 3919 
Q 2494 4147 2053 4147 
L 1259 4147 
z
M 628 4666 
L 2053 4666 
Q 2838 4666 3239 4311 
Q 3641 3956 3641 3272 
Q 3641 2581 3239 2228 
Q 2838 1875 2053 1875 
L 1259 1875 
L 1259 0 
L 628 0 
L 628 4666 
z
" transform="scale(0.015625)"/>
      <path id="DejaVuSans-68" d="M 3513 2113 
L 3513 0 
L 2938 0 
L 2938 2094 
Q 2938 2591 2744 2837 
Q 2550 3084 2163 3084 
Q 1697 3084 1428 2787 
Q 1159 2491 1159 1978 
L 1159 0 
L 581 0 
L 581 4863 
L 1159 4863 
L 1159 2956 
Q 1366 3272 1645 3428 
Q 1925 3584 2291 3584 
Q 2894 3584 3203 3211 
Q 3513 2838 3513 2113 
z
" transform="scale(0.015625)"/>
      <path id="DejaVuSans-77" d="M 269 3500 
L 844 3500 
L 1563 769 
L 2278 3500 
L 2956 3500 
L 3675 769 
L 4391 3500 
L 4966 3500 
L 4050 0 
L 3372 0 
L 2619 2869 
L 1863 0 
L 1184 0 
L 269 3500 
z
" transform="scale(0.015625)"/>
      <path id="DejaVuSans-79" d="M 2059 -325 
Q 1816 -950 1584 -1140 
Q 1353 -1331 966 -1331 
L 506 -1331 
L 506 -850 
L 844 -850 
Q 1081 -850 1212 -737 
Q 1344 -625 1503 -206 
L 1606 56 
L 191 3500 
L 800 3500 
L 1894 763 
L 2988 3500 
L 3597 3500 
L 2059 -325 
z
" transform="scale(0.015625)"/>
      <path id="DejaVuSans-67" d="M 2906 1791 
Q 2906 2416 2648 2759 
Q 2391 3103 1925 3103 
Q 1463 3103 1205 2759 
Q 947 2416 947 1791 
Q 947 1169 1205 825 
Q 1463 481 1925 481 
Q 2391 481 2648 825 
Q 2906 1169 2906 1791 
z
M 3481 434 
Q 3481 -459 3084 -895 
Q 2688 -1331 1869 -1331 
Q 1566 -1331 1297 -1286 
Q 1028 -1241 775 -1147 
L 775 -588 
Q 1028 -725 1275 -790 
Q 1522 -856 1778 -856 
Q 2344 -856 2625 -561 
Q 2906 -266 2906 331 
L 2906 616 
Q 2728 306 2450 153 
Q 2172 0 1784 0 
Q 1141 0 747 490 
Q 353 981 353 1791 
Q 353 2603 747 3093 
Q 1141 3584 1784 3584 
Q 2172 3584 2450 3431 
Q 2728 3278 2906 2969 
L 2906 3500 
L 3481 3500 
L 3481 434 
z
" transform="scale(0.015625)"/>
      <path id="DejaVuSans-70" d="M 1159 525 
L 1159 -1331 
L 581 -1331 
L 581 3500 
L 1159 3500 
L 1159 2969 
Q 1341 3281 1617 3432 
Q 1894 3584 2278 3584 
Q 2916 3584 3314 3078 
Q 3713 2572 3713 1747 
Q 3713 922 3314 415 
Q 2916 -91 2278 -91 
Q 1894 -91 1617 61 
Q 1341 213 1159 525 
z
M 3116 1747 
Q 3116 2381 2855 2742 
Q 2594 3103 2138 3103 
Q 1681 3103 1420 2742 
Q 1159 2381 1159 1747 
Q 1159 1113 1420 752 
Q 1681 391 2138 391 
Q 2594 391 2855 752 
Q 3116 1113 3116 1747 
z
" transform="scale(0.015625)"/>
      <path id="DejaVuSans-6f" d="M 1959 3097 
Q 1497 3097 1228 2736 
Q 959 2375 959 1747 
Q 959 1119 1226 758 
Q 1494 397 1959 397 
Q 2419 397 2687 759 
Q 2956 1122 2956 1747 
Q 2956 2369 2687 2733 
Q 2419 3097 1959 3097 
z
M 1959 3584 
Q 2709 3584 3137 3096 
Q 3566 2609 3566 1747 
Q 3566 888 3137 398 
Q 2709 -91 1959 -91 
Q 1206 -91 779 398 
Q 353 888 353 1747 
Q 353 2609 779 3096 
Q 1206 3584 1959 3584 
z
" transform="scale(0.015625)"/>
     </defs>
     <use xlink:href="#DejaVuSans-28"/>
     <use xlink:href="#DejaVuSans-41" x="39.013672"/>
     <use xlink:href="#DejaVuSans-29" x="107.421875"/>
     <use xlink:href="#DejaVuSans-20" x="146.435547"/>
     <use xlink:href="#DejaVuSans-50" x="178.222656"/>
     <use xlink:href="#DejaVuSans-61" x="234.025391"/>
     <use xlink:href="#DejaVuSans-74" x="295.304688"/>
     <use xlink:href="#DejaVuSans-68" x="334.513672"/>
     <use xlink:href="#DejaVuSans-77" x="397.892578"/>
     <use xlink:href="#DejaVuSans-61" x="479.679688"/>
     <use xlink:href="#DejaVuSans-79" x="540.958984"/>
     <use xlink:href="#DejaVuSans-20" x="600.138672"/>
     <use xlink:href="#DejaVuSans-67" x="631.925781"/>
     <use xlink:href="#DejaVuSans-72" x="695.402344"/>
     <use xlink:href="#DejaVuSans-61" x="736.515625"/>
     <use xlink:href="#DejaVuSans-70" x="797.794922"/>
     <use xlink:href="#DejaVuSans-68" x="861.271484"/>
     <use xlink:href="#DejaVuSans-20" x="924.650391"/>
     <use xlink:href="#DejaVuSans-77" x="956.4375"/>
     <use xlink:href="#DejaVuSans-69" x="1038.224609"/>
     <use xlink:href="#DejaVuSans-74" x="1066.007812"/>
     <use xlink:href="#DejaVuSans-68" x="1105.216797"/>
     <use xlink:href="#DejaVuSans-20" x="1168.595703"/>
     <use xlink:href="#DejaVuSans-75" x="1200.382812"/>
     <use xlink:href="#DejaVuSans-6e" x="1263.761719"/>
     <use xlink:href="#DejaVuSans-6d" x="1327.140625"/>
     <use xlink:href="#DejaVuSans-65" x="1424.552734"/>
     <use xlink:href="#DejaVuSans-61" x="1486.076172"/>
     <use xlink:href="#DejaVuSans-73" x="1547.355469"/>
     <use xlink:href="#DejaVuSans-75" x="1599.455078"/>
     <use xlink:href="#DejaVuSans-72" x="1662.833984"/>
     <use xlink:href="#DejaVuSans-65" x="1701.697266"/>
     <use xlink:href="#DejaVuSans-64" x="1763.220703"/>
     <use xlink:href="#DejaVuSans-20" x="1826.697266"/>
     <use xlink:href="#DejaVuSans-6e" x="1858.484375"/>
     <use xlink:href="#DejaVuSans-6f" x="1921.863281"/>
     <use xlink:href="#DejaVuSans-64" x="1983.044922"/>
     <use xlink:href="#DejaVuSans-65" x="2046.521484"/>
     <use xlink:href="#DejaVuSans-73" x="2108.044922"/>
    </g>
   </g>
  </g>
  <g id="axes_2">
   <g id="patch_10">
    <path d="M 483.8 288.728 
L 849.6 288.728 
L 849.6 61.488 
L 483.8 61.488 
z
" style="fill: #ffffff"/>
   </g>
   <g id="patch_11">
    <path d="M 500.427273 288.728 
L 595.44026 288.728 
L 595.44026 115.592762 
L 500.427273 115.592762 
z
" clip-path="url(#p24a9889d09)" style="fill: #1f77b4"/>
   </g>
   <g id="patch_12">
    <path d="M 619.193506 288.728 
L 714.206494 288.728 
L 714.206494 72.308952 
L 619.193506 72.308952 
z
" clip-path="url(#p24a9889d09)" style="fill: #1f77b4; stroke: #111111; stroke-width: 2; stroke-linejoin: miter"/>
   </g>
   <g id="patch_13">
    <path d="M 737.95974 288.728 
L 832.972727 288.728 
L 832.972727 103.569481 
L 737.95974 103.569481 
z
" clip-path="url(#p24a9889d09)" style="fill: #1f77b4"/>
   </g>
   <g id="matplotlib.axis_1">
    <g id="xtick_1">
     <g id="line2d_1">
      <defs>
       <path id="m4e43ae4e0f" d="M 0 0 
L 0 3.5 
" style="stroke: #000000; stroke-width: 0.8"/>
      </defs>
      <g>
       <use xlink:href="#m4e43ae4e0f" x="547.933766" y="288.728" style="stroke: #000000; stroke-width: 0.8"/>
      </g>
     </g>
     <g id="text_10">
      <!-- M3 -->
      <g transform="translate(541.187985 302.566594) scale(0.09 -0.09)">
       <use xlink:href="#DejaVuSans-4d"/>
       <use xlink:href="#DejaVuSans-33" x="86.279297"/>
      </g>
     </g>
    </g>
    <g id="xtick_2">
     <g id="line2d_2">
      <g>
       <use xlink:href="#m4e43ae4e0f" x="666.7" y="288.728" style="stroke: #000000; stroke-width: 0.8"/>
      </g>
     </g>
     <g id="text_11">
      <!-- M5 -->
      <g transform="translate(659.954219 302.566594) scale(0.09 -0.09)">
       <use xlink:href="#DejaVuSans-4d"/>
       <use xlink:href="#DejaVuSans-35" x="86.279297"/>
      </g>
     </g>
    </g>
    <g id="xtick_3">
     <g id="line2d_3">
      <g>
       <use xlink:href="#m4e43ae4e0f" x="785.466234" y="288.728" style="stroke: #000000; stroke-width: 0.8"/>
      </g>
     </g>
     <g id="text_12">
      <!-- M6 -->
      <g transform="translate(778.720453 302.566594) scale(0.09 -0.09)">
       <use xlink:href="#DejaVuSans-4d"/>
       <use xlink:href="#DejaVuSans-36" x="86.279297"/>
      </g>
     </g>
    </g>
   </g>
   <g id="matplotlib.axis_2">
    <g id="ytick_1">
     <g id="line2d_4">
      <path d="M 483.8 288.728 
L 849.6 288.728 
" clip-path="url(#p24a9889d09)" style="fill: none; stroke: #b0b0b0; stroke-opacity: 0.25; stroke-width: 0.8; stroke-linecap: square"/>
     </g>
     <g id="line2d_5">
      <defs>
       <path id="mad1574c59f" d="M 0 0 
L -3.5 0 
" style="stroke: #000000; stroke-width: 0.8"/>
      </defs>
      <g>
       <use xlink:href="#mad1574c59f" x="483.8" y="288.728" style="stroke: #000000; stroke-width: 0.8"/>
      </g>
     </g>
     <g id="text_13">
      <!-- 0.00 -->
      <g transform="translate(456.760937 292.147297) scale(0.09 -0.09)">
       <defs>
        <path id="DejaVuSans-30" d="M 2034 4250 
Q 1547 4250 1301 3770 
Q 1056 3291 1056 2328 
Q 1056 1369 1301 889 
Q 1547 409 2034 409 
Q 2525 409 2770 889 
Q 3016 1369 3016 2328 
Q 3016 3291 2770 3770 
Q 2525 4250 2034 4250 
z
M 2034 4750 
Q 2819 4750 3233 4129 
Q 3647 3509 3647 2328 
Q 3647 1150 3233 529 
Q 2819 -91 2034 -91 
Q 1250 -91 836 529 
Q 422 1150 422 2328 
Q 422 3509 836 4129 
Q 1250 4750 2034 4750 
z
" transform="scale(0.015625)"/>
        <path id="DejaVuSans-2e" d="M 684 794 
L 1344 794 
L 1344 0 
L 684 0 
L 684 794 
z
" transform="scale(0.015625)"/>
       </defs>
       <use xlink:href="#DejaVuSans-30"/>
       <use xlink:href="#DejaVuSans-2e" x="63.623047"/>
       <use xlink:href="#DejaVuSans-30" x="95.410156"/>
       <use xlink:href="#DejaVuSans-30" x="159.033203"/>
      </g>
     </g>
    </g>
    <g id="ytick_2">
     <g id="line2d_6">
      <path d="M 483.8 258.669799 
L 849.6 258.669799 
" clip-path="url(#p24a9889d09)" style="fill: none; stroke: #b0b0b0; stroke-opacity: 0.25; stroke-width: 0.8; stroke-linecap: square"/>
     </g>
     <g id="line2d_7">
      <g>
       <use xlink:href="#mad1574c59f" x="483.8" y="258.669799" style="stroke: #000000; stroke-width: 0.8"/>
      </g>
     </g>
     <g id="text_14">
      <!-- 0.25 -->
      <g transform="translate(456.760937 262.089096) scale(0.09 -0.09)">
       <use xlink:href="#DejaVuSans-30"/>
       <use xlink:href="#DejaVuSans-2e" x="63.623047"/>
       <use xlink:href="#DejaVuSans-32" x="95.410156"/>
       <use xlink:href="#DejaVuSans-35" x="159.033203"/>
      </g>
     </g>
    </g>
    <g id="ytick_3">
     <g id="line2d_8">
      <path d="M 483.8 228.611598 
L 849.6 228.611598 
" clip-path="url(#p24a9889d09)" style="fill: none; stroke: #b0b0b0; stroke-opacity: 0.25; stroke-width: 0.8; stroke-linecap: square"/>
     </g>
     <g id="line2d_9">
      <g>
       <use xlink:href="#mad1574c59f" x="483.8" y="228.611598" style="stroke: #000000; stroke-width: 0.8"/>
      </g>
     </g>
     <g id="text_15">
      <!-- 0.50 -->
      <g transform="translate(456.760937 232.030895) scale(0.09 -0.09)">
       <use xlink:href="#DejaVuSans-30"/>
       <use xlink:href="#DejaVuSans-2e" x="63.623047"/>
       <use xlink:href="#DejaVuSans-35" x="95.410156"/>
       <use xlink:href="#DejaVuSans-30" x="159.033203"/>
      </g>
     </g>
    </g>
    <g id="ytick_4">
     <g id="line2d_10">
      <path d="M 483.8 198.553397 
L 849.6 198.553397 
" clip-path="url(#p24a9889d09)" style="fill: none; stroke: #b0b0b0; stroke-opacity: 0.25; stroke-width: 0.8; stroke-linecap: square"/>
     </g>
     <g id="line2d_11">
      <g>
       <use xlink:href="#mad1574c59f" x="483.8" y="198.553397" style="stroke: #000000; stroke-width: 0.8"/>
      </g>
     </g>
     <g id="text_16">
      <!-- 0.75 -->
      <g transform="translate(456.760937 201.972694) scale(0.09 -0.09)">
       <use xlink:href="#DejaVuSans-30"/>
       <use xlink:href="#DejaVuSans-2e" x="63.623047"/>
       <use xlink:href="#DejaVuSans-37" x="95.410156"/>
       <use xlink:href="#DejaVuSans-35" x="159.033203"/>
      </g>
     </g>
    </g>
    <g id="ytick_5">
     <g id="line2d_12">
      <path d="M 483.8 168.495196 
L 849.6 168.495196 
" clip-path="url(#p24a9889d09)" style="fill: none; stroke: #b0b0b0; stroke-opacity: 0.25; stroke-width: 0.8; stroke-linecap: square"/>
     </g>
     <g id="line2d_13">
      <g>
       <use xlink:href="#mad1574c59f" x="483.8" y="168.495196" style="stroke: #000000; stroke-width: 0.8"/>
      </g>
     </g>
     <g id="text_17">
      <!-- 1.00 -->
      <g transform="translate(456.760937 171.914493) scale(0.09 -0.09)">
       <use xlink:href="#DejaVuSans-31"/>
       <use xlink:href="#DejaVuSans-2e" x="63.623047"/>
       <use xlink:href="#DejaVuSans-30" x="95.410156"/>
       <use xlink:href="#DejaVuSans-30" x="159.033203"/>
      </g>
     </g>
    </g>
    <g id="ytick_6">
     <g id="line2d_14">
      <path d="M 483.8 138.436995 
L 849.6 138.436995 
" clip-path="url(#p24a9889d09)" style="fill: none; stroke: #b0b0b0; stroke-opacity: 0.25; stroke-width: 0.8; stroke-linecap: square"/>
     </g>
     <g id="line2d_15">
      <g>
       <use xlink:href="#mad1574c59f" x="483.8" y="138.436995" style="stroke: #000000; stroke-width: 0.8"/>
      </g>
     </g>
     <g id="text_18">
      <!-- 1.25 -->
      <g transform="translate(456.760937 141.856292) scale(0.09 -0.09)">
       <use xlink:href="#DejaVuSans-31"/>
       <use xlink:href="#DejaVuSans-2e" x="63.623047"/>
       <use xlink:href="#DejaVuSans-32" x="95.410156"/>
       <use xlink:href="#DejaVuSans-35" x="159.033203"/>
      </g>
     </g>
    </g>
    <g id="ytick_7">
     <g id="line2d_16">
      <path d="M 483.8 108.378794 
L 849.6 108.378794 
" clip-path="url(#p24a9889d09)" style="fill: none; stroke: #b0b0b0; stroke-opacity: 0.25; stroke-width: 0.8; stroke-linecap: square"/>
     </g>
     <g id="line2d_17">
      <g>
       <use xlink:href="#mad1574c59f" x="483.8" y="108.378794" style="stroke: #000000; stroke-width: 0.8"/>
      </g>
     </g>
     <g id="text_19">
      <!-- 1.50 -->
      <g transform="translate(456.760937 111.798091) scale(0.09 -0.09)">
       <use xlink:href="#DejaVuSans-31"/>
       <use xlink:href="#DejaVuSans-2e" x="63.623047"/>
       <use xlink:href="#DejaVuSans-35" x="95.410156"/>
       <use xlink:href="#DejaVuSans-30" x="159.033203"/>
      </g>
     </g>
    </g>
    <g id="ytick_8">
     <g id="line2d_18">
      <path d="M 483.8 78.320593 
L 849.6 78.320593 
" clip-path="url(#p24a9889d09)" style="fill: none; stroke: #b0b0b0; stroke-opacity: 0.25; stroke-width: 0.8; stroke-linecap: square"/>
     </g>
     <g id="line2d_19">
      <g>
       <use xlink:href="#mad1574c59f" x="483.8" y="78.320593" style="stroke: #000000; stroke-width: 0.8"/>
      </g>
     </g>
     <g id="text_20">
      <!-- 1.75 -->
      <g transform="translate(456.760937 81.739889) scale(0.09 -0.09)">
       <use xlink:href="#DejaVuSans-31"/>
       <use xlink:href="#DejaVuSans-2e" x="63.623047"/>
       <use xlink:href="#DejaVuSans-37" x="95.410156"/>
       <use xlink:href="#DejaVuSans-35" x="159.033203"/>
      </g>
     </g>
    </g>
    <g id="text_21">
     <!-- $\widehat{\Delta}_m \mathcal{U}$ (placeholder) -->
     <g transform="translate(450.660937 221.108) rotate(-90) scale(0.1 -0.1)">
      <defs>
       <path id="STIXSizeTwoSym-Regular-302" d="M -1094 3610 
L -1728 3610 
L -4224 4538 
L -6726 3610 
L -7360 3610 
L -4378 4973 
L -4070 4973 
L -1094 3610 
z
" transform="scale(0.015625)"/>
       <path id="DejaVuSans-394" d="M 2188 4044 
L 906 525 
L 3472 525 
L 2188 4044 
z
M 50 0 
L 1831 4666 
L 2547 4666 
L 4325 0 
L 50 0 
z
" transform="scale(0.015625)"/>
       <path id="DejaVuSans-Oblique-6d" d="M 5747 2113 
L 5338 0 
L 4763 0 
L 5166 2094 
Q 5191 2228 5203 2325 
Q 5216 2422 5216 2491 
Q 5216 2772 5059 2928 
Q 4903 3084 4622 3084 
Q 4203 3084 3875 2770 
Q 3547 2456 3450 1953 
L 3066 0 
L 2491 0 
L 2900 2094 
Q 2925 2209 2937 2307 
Q 2950 2406 2950 2484 
Q 2950 2769 2794 2926 
Q 2638 3084 2363 3084 
Q 1938 3084 1609 2770 
Q 1281 2456 1184 1953 
L 800 0 
L 225 0 
L 909 3500 
L 1484 3500 
L 1375 2956 
Q 1609 3263 1923 3423 
Q 2238 3584 2597 3584 
Q 2978 3584 3223 3384 
Q 3469 3184 3519 2828 
Q 3781 3197 4126 3390 
Q 4472 3584 4856 3584 
Q 5306 3584 5551 3325 
Q 5797 3066 5797 2591 
Q 5797 2488 5784 2364 
Q 5772 2241 5747 2113 
z
" transform="scale(0.015625)"/>
       <path id="STIXNonUnicode-Italic-e241" d="M 2272 3130 
L 1792 1485 
Q 1645 979 1645 781 
Q 1645 576 1763 406 
Q 1882 237 2106 237 
Q 2490 237 2787 381 
Q 3085 525 3280 774 
Q 3475 1024 3622 1334 
Q 3770 1645 3885 2000 
Q 4000 2355 4102 2675 
Q 4205 2995 4345 3308 
Q 4486 3622 4653 3814 
Q 4864 4064 5049 4182 
Q 5235 4301 5530 4301 
Q 5811 4301 5945 4169 
Q 6080 4038 6080 3834 
Q 6080 3616 5971 3453 
Q 5862 3290 5645 3290 
Q 5510 3290 5417 3366 
Q 5325 3443 5325 3552 
Q 5325 3680 5379 3747 
Q 5434 3814 5434 3827 
Q 5434 3942 5293 3942 
Q 4922 3942 4493 2963 
Q 4403 2752 4278 2368 
Q 4154 1984 4058 1689 
Q 3962 1395 3779 1043 
Q 3597 691 3382 460 
Q 3168 230 2816 73 
Q 2464 -83 2022 -83 
Q 1862 -83 1715 -60 
Q 1568 -38 1373 32 
Q 1178 102 1059 272 
Q 941 442 941 691 
Q 941 896 1005 1133 
L 1504 2906 
Q 1670 3462 1670 3629 
Q 1670 3750 1622 3814 
Q 1574 3878 1434 3878 
Q 941 3878 333 3424 
L 237 3546 
Q 1011 4237 1946 4237 
Q 2406 4237 2406 3808 
Q 2406 3578 2272 3130 
z
" transform="scale(0.015625)"/>
       <path id="DejaVuSans-6c" d="M 603 4863 
L 1178 4863 
L 1178 0 
L 603 0 
L 603 4863 
z
" transform="scale(0.015625)"/>
      </defs>
      <use xlink:href="#STIXSizeTwoSym-Regular-302" transform="translate(88.461426 46.609375) scale(0.698711)"/>
      <use xlink:href="#DejaVuSans-394" transform="translate(0 0.6875)"/>
      <use xlink:href="#DejaVuSans-Oblique-6d" transform="translate(69.365234 -15.71875) scale(0.7)"/>
      <use xlink:href="#STIXNonUnicode-Italic-e241" transform="translate(140.288086 0.6875)"/>
      <use xlink:href="#DejaVuSans-20" transform="translate(221.988068 0.6875)"/>
      <use xlink:href="#DejaVuSans-28" transform="translate(253.775177 0.6875)"/>
      <use xlink:href="#DejaVuSans-70" transform="translate(292.788849 0.6875)"/>
      <use xlink:href="#DejaVuSans-6c" transform="translate(356.265411 0.6875)"/>
      <use xlink:href="#DejaVuSans-61" transform="translate(384.048615 0.6875)"/>
      <use xlink:href="#DejaVuSans-63" transform="translate(445.327911 0.6875)"/>
      <use xlink:href="#DejaVuSans-65" transform="translate(500.30838 0.6875)"/>
      <use xlink:href="#DejaVuSans-68" transform="translate(561.831818 0.6875)"/>
      <use xlink:href="#DejaVuSans-6f" transform="translate(625.210724 0.6875)"/>
      <use xlink:href="#DejaVuSans-6c" transform="translate(686.392365 0.6875)"/>
      <use xlink:href="#DejaVuSans-64" transform="translate(714.175568 0.6875)"/>
      <use xlink:href="#DejaVuSans-65" transform="translate(777.65213 0.6875)"/>
      <use xlink:href="#DejaVuSans-72" transform="translate(839.175568 0.6875)"/>
      <use xlink:href="#DejaVuSans-29" transform="translate(880.288849 0.6875)"/>
     </g>
    </g>
   </g>
   <g id="patch_14">
    <path d="M 483.8 288.728 
L 483.8 61.488 
" style="fill: none; stroke: #000000; stroke-width: 0.8; stroke-linejoin: miter; stroke-linecap: square"/>
   </g>
   <g id="patch_15">
    <path d="M 849.6 288.728 
L 849.6 61.488 
" style="fill: none; stroke: #000000; stroke-width: 0.8; stroke-linejoin: miter; stroke-linecap: square"/>
   </g>
   <g id="patch_16">
    <path d="M 483.8 288.728 
L 849.6 288.728 
" style="fill: none; stroke: #000000; stroke-width: 0.8; stroke-linejoin: miter; stroke-linecap: square"/>
   </g>
   <g id="patch_17">
    <path d="M 483.8 61.488 
L 849.6 61.488 
" style="fill: none; stroke: #000000; stroke-width: 0.8; stroke-linejoin: miter; stroke-linecap: square"/>
   </g>
   <g id="patch_18">
    <path d="M 666.7 68.385201 
Q 666.7 69.348896 666.7 68.747343 
" style="fill: none; stroke: #000000; stroke-width: 1.4; stroke-linecap: round"/>
    <path d="M 668.7 64.747343 
L 666.7 68.747343 
L 664.7 64.747343 
" style="fill: none; stroke: #000000; stroke-width: 1.4; stroke-linecap: round"/>
   </g>
   <g id="text_22">
    <!-- recommended $m^*$ -->
    <g transform="translate(620.4 62.308952) scale(0.1 -0.1)">
     <defs>
      <path id="DejaVuSans-2a" d="M 3009 3897 
L 1888 3291 
L 3009 2681 
L 2828 2375 
L 1778 3009 
L 1778 1831 
L 1422 1831 
L 1422 3009 
L 372 2375 
L 191 2681 
L 1313 3291 
L 191 3897 
L 372 4206 
L 1422 3572 
L 1422 4750 
L 1778 4750 
L 1778 3572 
L 2828 4206 
L 3009 3897 
z
" transform="scale(0.015625)"/>
     </defs>
     <use xlink:href="#DejaVuSans-72" transform="translate(0 0.765625)"/>
     <use xlink:href="#DejaVuSans-65" transform="translate(41.113281 0.765625)"/>
     <use xlink:href="#DejaVuSans-63" transform="translate(102.636719 0.765625)"/>
     <use xlink:href="#DejaVuSans-6f" transform="translate(157.617188 0.765625)"/>
     <use xlink:href="#DejaVuSans-6d" transform="translate(218.798828 0.765625)"/>
     <use xlink:href="#DejaVuSans-6d" transform="translate(316.210938 0.765625)"/>
     <use xlink:href="#DejaVuSans-65" transform="translate(413.623047 0.765625)"/>
     <use xlink:href="#DejaVuSans-6e" transform="translate(475.146484 0.765625)"/>
     <use xlink:href="#DejaVuSans-64" transform="translate(538.525391 0.765625)"/>
     <use xlink:href="#DejaVuSans-65" transform="translate(602.001953 0.765625)"/>
     <use xlink:href="#DejaVuSans-64" transform="translate(663.525391 0.765625)"/>
     <use xlink:href="#DejaVuSans-20" transform="translate(727.001953 0.765625)"/>
     <use xlink:href="#DejaVuSans-Oblique-6d" transform="translate(758.789062 0.765625)"/>
     <use xlink:href="#DejaVuSans-2a" transform="translate(874.488763 39.046875) scale(0.7)"/>
    </g>
   </g>
   <g id="text_23">
    <g id="patch_19">
     <path d="M 491.116 82.2328 
L 581.116 82.2328 
Q 584.116 82.2328 584.116 79.2328 
L 584.116 66.0328 
Q 584.116 63.0328 581.116 63.0328 
L 491.116 63.0328 
Q 488.116 63.0328 488.116 66.0328 
L 488.116 79.2328 
Q 488.116 82.2328 491.116 82.2328 
z
" style="fill: #ffffff; opacity: 0.95; stroke: #444444; stroke-linejoin: miter"/>
    </g>
    <!-- $\widehat{\Delta}_m \mathcal{U} = \left\|\nabla_{\mu_m}\mathcal{U}\right\|\cdot\sigma_m^2$ -->
    <g transform="translate(491.116 76.1328) scale(0.1 -0.1)">
     <defs>
      <path id="DejaVuSans-3d" d="M 678 2906 
L 4684 2906 
L 4684 2381 
L 678 2381 
L 678 2906 
z
M 678 1631 
L 4684 1631 
L 4684 1100 
L 678 1100 
L 678 1631 
z
" transform="scale(0.015625)"/>
      <path id="DejaVuSans-2016" d="M 1344 4891 
L 1344 -1509 
L 813 -1509 
L 813 4891 
L 1344 4891 
z
M 2376 4891 
L 2376 -1509 
L 1845 -1509 
L 1845 4891 
L 2376 4891 
z
" transform="scale(0.015625)"/>
      <path id="DejaVuSans-2207" d="M 2138 659 
L 3444 4047 
L 831 4047 
L 2138 659 
z
M 1791 0 
L -19 4603 
L 4300 4603 
L 2491 0 
L 1791 0 
z
" transform="scale(0.015625)"/>
      <path id="DejaVuSans-Oblique-3bc" d="M -84 -1331 
L 856 3500 
L 1434 3500 
L 1009 1322 
Q 997 1256 987 1175 
Q 978 1094 978 1013 
Q 978 722 1161 565 
Q 1344 409 1684 409 
Q 2147 409 2431 671 
Q 2716 934 2816 1459 
L 3213 3500 
L 3788 3500 
L 3266 809 
Q 3253 750 3248 706 
Q 3244 663 3244 628 
Q 3244 531 3283 486 
Q 3322 441 3406 441 
Q 3438 441 3492 456 
Q 3547 472 3647 513 
L 3559 50 
Q 3422 -19 3297 -55 
Q 3172 -91 3053 -91 
Q 2847 -91 2730 40 
Q 2613 172 2613 403 
Q 2438 153 2195 31 
Q 1953 -91 1625 -91 
Q 1334 -91 1117 43 
Q 900 178 831 397 
L 494 -1331 
L -84 -1331 
z
" transform="scale(0.015625)"/>
      <path id="DejaVuSans-22c5" d="M 684 2619 
L 1344 2619 
L 1344 1825 
L 684 1825 
L 684 2619 
z
" transform="scale(0.015625)"/>
      <path id="DejaVuSans-Oblique-3c3" d="M 2219 3044 
Q 1744 3044 1422 2700 
Q 1081 2341 969 1747 
Q 844 1119 1044 756 
Q 1241 397 1706 397 
Q 2166 397 2503 759 
Q 2844 1122 2966 1747 
Q 3075 2319 2881 2700 
Q 2700 3044 2219 3044 
z
M 2309 3503 
L 4219 3500 
L 4106 2925 
L 3463 2925 
Q 3706 2438 3575 1747 
Q 3406 888 2884 400 
Q 2359 -91 1609 -91 
Q 856 -91 525 400 
Q 194 888 363 1747 
Q 528 2609 1050 3097 
Q 1484 3503 2309 3503 
z
" transform="scale(0.015625)"/>
     </defs>
     <use xlink:href="#STIXSizeTwoSym-Regular-302" transform="translate(88.461426 46.609375) scale(0.698711)"/>
     <use xlink:href="#DejaVuSans-394" transform="translate(0 0.6875)"/>
     <use xlink:href="#DejaVuSans-Oblique-6d" transform="translate(69.365234 -15.71875) scale(0.7)"/>
     <use xlink:href="#STIXNonUnicode-Italic-e241" transform="translate(140.288086 0.6875)"/>
     <use xlink:href="#DejaVuSans-3d" transform="translate(241.47049 0.6875)"/>
     <use xlink:href="#DejaVuSans-2016" transform="translate(344.741974 -5.979687) scale(1.028859)"/>
     <use xlink:href="#DejaVuSans-2207" transform="translate(396.179474 0.6875)"/>
     <use xlink:href="#DejaVuSans-Oblique-3bc" transform="translate(464.031036 -15.71875) scale(0.7)"/>
     <use xlink:href="#DejaVuSans-Oblique-6d" transform="translate(508.567169 -27.203125) scale(0.49)"/>
     <use xlink:href="#STIXNonUnicode-Italic-e241" transform="translate(560.94754 0.6875)"/>
     <use xlink:href="#DejaVuSans-2016" transform="translate(642.647522 -5.979687) scale(1.028859)"/>
     <use xlink:href="#DejaVuSans-22c5" transform="translate(713.567444 0.6875)"/>
     <use xlink:href="#DejaVuSans-Oblique-3c3" transform="translate(764.836975 0.6875)"/>
     <use xlink:href="#DejaVuSans-32" transform="translate(832.68859 38.96875) scale(0.7)"/>
     <use xlink:href="#DejaVuSans-Oblique-6d" transform="translate(828.215881 -26.65625) scale(0.7)"/>
    </g>
   </g>
   <g id="text_24">
    <!-- (B) Estimated measurement impact -->
    <g transform="translate(559.366563 55.488) scale(0.12 -0.12)">
     <defs>
      <path id="DejaVuSans-42" d="M 1259 2228 
L 1259 519 
L 2272 519 
Q 2781 519 3026 730 
Q 3272 941 3272 1375 
Q 3272 1813 3026 2020 
Q 2781 2228 2272 2228 
L 1259 2228 
z
M 1259 4147 
L 1259 2741 
L 2194 2741 
Q 2656 2741 2882 2914 
Q 3109 3088 3109 3444 
Q 3109 3797 2882 3972 
Q 2656 4147 2194 4147 
L 1259 4147 
z
M 628 4666 
L 2241 4666 
Q 2963 4666 3353 4366 
Q 3744 4066 3744 3513 
Q 3744 3084 3544 2831 
Q 3344 2578 2956 2516 
Q 3422 2416 3680 2098 
Q 3938 1781 3938 1306 
Q 3938 681 3513 340 
Q 3088 0 2303 0 
L 628 0 
L 628 4666 
z
" transform="scale(0.015625)"/>
      <path id="DejaVuSans-45" d="M 628 4666 
L 3578 4666 
L 3578 4134 
L 1259 4134 
L 1259 2753 
L 3481 2753 
L 3481 2222 
L 1259 2222 
L 1259 531 
L 3634 531 
L 3634 0 
L 628 0 
L 628 4666 
z
" transform="scale(0.015625)"/>
     </defs>
     <use xlink:href="#DejaVuSans-28"/>
     <use xlink:href="#DejaVuSans-42" x="39.013672"/>
     <use xlink:href="#DejaVuSans-29" x="107.617188"/>
     <use xlink:href="#DejaVuSans-20" x="146.630859"/>
     <use xlink:href="#DejaVuSans-45" x="178.417969"/>
     <use xlink:href="#DejaVuSans-73" x="241.601562"/>
     <use xlink:href="#DejaVuSans-74" x="293.701172"/>
     <use xlink:href="#DejaVuSans-69" x="332.910156"/>
     <use xlink:href="#DejaVuSans-6d" x="360.693359"/>
     <use xlink:href="#DejaVuSans-61" x="458.105469"/>
     <use xlink:href="#DejaVuSans-74" x="519.384766"/>
     <use xlink:href="#DejaVuSans-65" x="558.59375"/>
     <use xlink:href="#DejaVuSans-64" x="620.117188"/>
     <use xlink:href="#DejaVuSans-20" x="683.59375"/>
     <use xlink:href="#DejaVuSans-6d" x="715.380859"/>
     <use xlink:href="#DejaVuSans-65" x="812.792969"/>
     <use xlink:href="#DejaVuSans-61" x="874.316406"/>
     <use xlink:href="#DejaVuSans-73" x="935.595703"/>
     <use xlink:href="#DejaVuSans-75" x="987.695312"/>
     <use xlink:href="#DejaVuSans-72" x="1051.074219"/>
     <use xlink:href="#DejaVuSans-65" x="1089.9375"/>
     <use xlink:href="#DejaVuSans-6d" x="1151.460938"/>
     <use xlink:href="#DejaVuSans-65" x="1248.873047"/>
     <use xlink:href="#DejaVuSans-6e" x="1310.396484"/>
     <use xlink:href="#DejaVuSans-74" x="1373.775391"/>
     <use xlink:href="#DejaVuSans-20" x="1412.984375"/>
     <use xlink:href="#DejaVuSans-69" x="1444.771484"/>
     <use xlink:href="#DejaVuSans-6d" x="1472.554688"/>
     <use xlink:href="#DejaVuSans-70" x="1569.966797"/>
     <use xlink:href="#DejaVuSans-61" x="1633.443359"/>
     <use xlink:href="#DejaVuSans-63" x="1694.722656"/>
     <use xlink:href="#DejaVuSans-74" x="1749.703125"/>
    </g>
   </g>
  </g>
  <g id="text_25">
   <!-- Estimating Measurement Impact Without Enumerating Completions -->
   <g transform="translate(225.195 16.318125) scale(0.12 -0.12)">
    <defs>
     <path id="DejaVuSans-49" d="M 628 4666 
L 1259 4666 
L 1259 0 
L 628 0 
L 628 4666 
z
" transform="scale(0.015625)"/>
     <path id="DejaVuSans-57" d="M 213 4666 
L 850 4666 
L 1831 722 
L 2809 4666 
L 3519 4666 
L 4500 722 
L 5478 4666 
L 6119 4666 
L 4947 0 
L 4153 0 
L 3169 4050 
L 2175 0 
L 1381 0 
L 213 4666 
z
" transform="scale(0.015625)"/>
     <path id="DejaVuSans-43" d="M 4122 4306 
L 4122 3641 
Q 3803 3938 3442 4084 
Q 3081 4231 2675 4231 
Q 1875 4231 1450 3742 
Q 1025 3253 1025 2328 
Q 1025 1406 1450 917 
Q 1875 428 2675 428 
Q 3081 428 3442 575 
Q 3803 722 4122 1019 
L 4122 359 
Q 3791 134 3420 21 
Q 3050 -91 2638 -91 
Q 1578 -91 968 557 
Q 359 1206 359 2328 
Q 359 3453 968 4101 
Q 1578 4750 2638 4750 
Q 3056 4750 3426 4639 
Q 3797 4528 4122 4306 
z
" transform="scale(0.015625)"/>
    </defs>
    <use xlink:href="#DejaVuSans-45"/>
    <use xlink:href="#DejaVuSans-73" x="63.183594"/>
    <use xlink:href="#DejaVuSans-74" x="115.283203"/>
    <use xlink:href="#DejaVuSans-69" x="154.492188"/>
    <use xlink:href="#DejaVuSans-6d" x="182.275391"/>
    <use xlink:href="#DejaVuSans-61" x="279.6875"/>
    <use xlink:href="#DejaVuSans-74" x="340.966797"/>
    <use xlink:href="#DejaVuSans-69" x="380.175781"/>
    <use xlink:href="#DejaVuSans-6e" x="407.958984"/>
    <use xlink:href="#DejaVuSans-67" x="471.337891"/>
    <use xlink:href="#DejaVuSans-20" x="534.814453"/>
    <use xlink:href="#DejaVuSans-4d" x="566.601562"/>
    <use xlink:href="#DejaVuSans-65" x="652.880859"/>
    <use xlink:href="#DejaVuSans-61" x="714.404297"/>
    <use xlink:href="#DejaVuSans-73" x="775.683594"/>
    <use xlink:href="#DejaVuSans-75" x="827.783203"/>
    <use xlink:href="#DejaVuSans-72" x="891.162109"/>
    <use xlink:href="#DejaVuSans-65" x="930.025391"/>
    <use xlink:href="#DejaVuSans-6d" x="991.548828"/>
    <use xlink:href="#DejaVuSans-65" x="1088.960938"/>
    <use xlink:href="#DejaVuSans-6e" x="1150.484375"/>
    <use xlink:href="#DejaVuSans-74" x="1213.863281"/>
    <use xlink:href="#DejaVuSans-20" x="1253.072266"/>
    <use xlink:href="#DejaVuSans-49" x="1284.859375"/>
    <use xlink:href="#DejaVuSans-6d" x="1314.351562"/>
    <use xlink:href="#DejaVuSans-70" x="1411.763672"/>
    <use xlink:href="#DejaVuSans-61" x="1475.240234"/>
    <use xlink:href="#DejaVuSans-63" x="1536.519531"/>
    <use xlink:href="#DejaVuSans-74" x="1591.5"/>
    <use xlink:href="#DejaVuSans-20" x="1630.708984"/>
    <use xlink:href="#DejaVuSans-57" x="1662.496094"/>
    <use xlink:href="#DejaVuSans-69" x="1759.123047"/>
    <use xlink:href="#DejaVuSans-74" x="1786.90625"/>
    <use xlink:href="#DejaVuSans-68" x="1826.115234"/>
    <use xlink:href="#DejaVuSans-6f" x="1889.494141"/>
    <use xlink:href="#DejaVuSans-75" x="1950.675781"/>
    <use xlink:href="#DejaVuSans-74" x="2014.054688"/>
    <use xlink:href="#DejaVuSans-20" x="2053.263672"/>
    <use xlink:href="#DejaVuSans-45" x="2085.050781"/>
    <use xlink:href="#DejaVuSans-6e" x="2148.234375"/>
    <use xlink:href="#DejaVuSans-75" x="2211.613281"/>
    <use xlink:href="#DejaVuSans-6d" x="2274.992188"/>
    <use xlink:href="#DejaVuSans-65" x="2372.404297"/>
    <use xlink:href="#DejaVuSans-72" x="2433.927734"/>
    <use xlink:href="#DejaVuSans-61" x="2475.041016"/>
    <use xlink:href="#DejaVuSans-74" x="2536.320312"/>
    <use xlink:href="#DejaVuSans-69" x="2575.529297"/>
    <use xlink:href="#DejaVuSans-6e" x="2603.3125"/>
    <use xlink:href="#DejaVuSans-67" x="2666.691406"/>
    <use xlink:href="#DejaVuSans-20" x="2730.167969"/>
    <use xlink:href="#DejaVuSans-43" x="2761.955078"/>
    <use xlink:href="#DejaVuSans-6f" x="2831.779297"/>
    <use xlink:href="#DejaVuSans-6d" x="2892.960938"/>
    <use xlink:href="#DejaVuSans-70" x="2990.373047"/>
    <use xlink:href="#DejaVuSans-6c" x="3053.849609"/>
    <use xlink:href="#DejaVuSans-65" x="3081.632812"/>
    <use xlink:href="#DejaVuSans-74" x="3143.15625"/>
    <use xlink:href="#DejaVuSans-69" x="3182.365234"/>
    <use xlink:href="#DejaVuSans-6f" x="3210.148438"/>
    <use xlink:href="#DejaVuSans-6e" x="3271.330078"/>
    <use xlink:href="#DejaVuSans-73" x="3334.708984"/>
   </g>
  </g>
 </g>
 <defs>
  <clipPath id="pbe1dff848a">
   <rect x="7.2" y="61.488" width="420.67" height="227.24"/>
  </clipPath>
  <clipPath id="p24a9889d09">
   <rect x="483.8" y="61.488" width="365.8" height="227.24"/>
  </clipPath>
 </defs>
</svg>
