<?xml version="1.0" encoding="utf-8" standalone="no"?>
<!DOCTYPE svg PUBLIC "-//W3C//DTD SVG 1.1//EN"
  "http://www.w3.org/Graphics/SVG/1.1/DTD/svg11.dtd">
<svg xmlns:xlink="http://www.w3.org/1999/xlink" width="892.8pt" height="462.24pt" viewBox="0 0 892.8 462.24" xmlns="http://www.w3.org/2000/svg" version="1.1">
 <metadata>
  <rdf:RDF xmlns:dc="http://purl.org/dc/elements/1.1/" xmlns:cc="http://creativecommons.org/ns#" xmlns:rdf="http://www.w3.org/1999/02/22-rdf-syntax-ns#">
   <cc:Work>
    <dc:type rdf:resource="http://purl.org/dc/dcmitype/StillImage"/>
    <dc:date>2026-01-31T12:46:06.584249</dc:date>
    <dc:format>image/svg+xml</dc:format>
    <dc:creator>
     <cc:Agent>
      <dc:title>Matplotlib v3.7.5, https://matplotlib.org/</dc:title>
     </cc:Agent>
    </dc:creator>
   </cc:Work>
  </rdf:RDF>
 </metadata>
 <defs>
  <style type="text/css">*{stroke-linejoin: round; stroke-linecap: butt}</style>
 </defs>
 <g id="figure_1">
  <g id="patch_1">
   <path d="M 0 462.24 
L 892.8 462.24 
L 892.8 0 
L 0 0 
z
" style="fill: #ffffff"/>
  </g>
  <g id="axes_1">
   <g id="patch_2">
    <path d="M 261.80857 139.590621 
Q 264.665007 98.560428 267.397209 59.314769 
" clip-path="url(#pc901902448)" style="fill: none; stroke: #444444; stroke-width: 1.6; stroke-linecap: round"/>
    <path d="M 264.669644 63.9365 
L 267.397209 59.314769 
L 269.458055 64.269859 
z
" clip-path="url(#pc901902448)" style="fill: #444444; stroke: #444444; stroke-width: 1.6; stroke-linecap: round"/>
   </g>
   <g id="patch_3">
    <path d="M 252.770304 150.189427 
Q 214.171641 159.165893 177.315336 167.737158 
" clip-path="url(#pc901902448)" style="fill: none; stroke: #444444; stroke-width: 1.6; stroke-linecap: round"/>
    <path d="M 182.534208 168.987508 
L 177.315336 167.737158 
L 181.446939 164.31227 
z
" clip-path="url(#pc901902448)" style="fill: #444444; stroke: #444444; stroke-width: 1.6; stroke-linecap: round"/>
   </g>
   <g id="patch_4">
    <path d="M 262.578783 55.546241 
Q 217.630738 109.498418 173.827707 162.076206 
" clip-path="url(#pc901902448)" style="fill: none; stroke: #444444; stroke-width: 1.6; stroke-linecap: round"/>
    <path d="M 178.744039 159.924536 
L 173.827707 162.076206 
L 175.05617 156.852139 
z
" clip-path="url(#pc901902448)" style="fill: #444444; stroke: #444444; stroke-width: 1.6; stroke-linecap: round"/>
   </g>
   <g id="patch_5">
    <path d="M 174.089303 175.272061 
Q 200.461229 194.886509 225.397785 213.433383 
" clip-path="url(#pc901902448)" style="fill: none; stroke: #444444; stroke-width: 1.6; stroke-linecap: round"/>
    <path d="M 222.978585 208.643031 
L 225.397785 213.433383 
L 220.113984 212.494532 
z
" clip-path="url(#pc901902448)" style="fill: #444444; stroke: #444444; stroke-width: 1.6; stroke-linecap: round"/>
   </g>
   <g id="patch_6">
    <path d="M 233.235363 211.024184 
Q 228.615869 137.826617 224.109045 66.414353 
" clip-path="url(#pc901902448)" style="fill: none; stroke: #444444; stroke-width: 1.6; stroke-linecap: round"/>
    <path d="M 222.016137 71.355986 
L 224.109045 66.414353 
L 226.806606 71.05366 
z
" clip-path="url(#pc901902448)" style="fill: #444444; stroke: #444444; stroke-width: 1.6; stroke-linecap: round"/>
   </g>
   <g id="patch_7">
    <path d="M 214.811457 55.364025 
Q 187.939645 53.433388 162.852088 51.630943 
" clip-path="url(#pc901902448)" style="fill: none; stroke: #444444; stroke-width: 1.6; stroke-linecap: round"/>
    <path d="M 167.46776 54.368748 
L 162.852088 51.630943 
L 167.811735 49.581089 
z
" clip-path="url(#pc901902448)" style="fill: #444444; stroke: #444444; stroke-width: 1.6; stroke-linecap: round"/>
   </g>
   <g id="patch_8">
    <path d="M 146.874666 57.528315 
Q 93.322536 121.614176 40.917464 184.327353 
" clip-path="url(#pc901902448)" style="fill: none; stroke: #444444; stroke-width: 1.6; stroke-linecap: round"/>
    <path d="M 45.836989 182.182995 
L 40.917464 184.327353 
L 42.153692 179.105118 
z
" clip-path="url(#pc901902448)" style="fill: #444444; stroke: #444444; stroke-width: 1.6; stroke-linecap: round"/>
   </g>
   <g id="patch_9">
    <path d="M 34.216216 202.593351 
C 37.938182 202.593351 41.508207 201.513704 44.140034 199.592188 
C 46.771862 197.670673 48.250614 195.064173 48.250614 192.34674 
C 48.250614 189.629307 46.771862 187.022807 44.140034 185.101291 
C 41.508207 183.179776 37.938182 182.100128 34.216216 182.100128 
C 30.49425 182.100128 26.924226 183.179776 24.292398 185.101291 
C 21.660571 187.022807 20.181818 189.629307 20.181818 192.34674 
C 20.181818 195.064173 21.660571 197.670673 24.292398 199.592188 
C 26.924226 201.513704 30.49425 202.593351 34.216216 202.593351 
L 34.216216 202.593351 
z
" clip-path="url(#pc901902448)" style="fill: none; stroke-dasharray: 6,4; stroke-dashoffset: 0; stroke: #d62728; stroke-width: 2; stroke-linejoin: miter"/>
   </g>
   <g id="PathCollection_1">
    <defs>
     <path id="mcbaf11e2dd" d="M 0 15 
C 3.978047 15 7.793698 13.419505 10.606602 10.606602 
C 13.419505 7.793698 15 3.978047 15 0 
C 15 -3.978047 13.419505 -7.793698 10.606602 -10.606602 
C 7.793698 -13.419505 3.978047 -15 0 -15 
C -3.978047 -15 -7.793698 -13.419505 -10.606602 -10.606602 
C -13.419505 -7.793698 -15 -3.978047 -15 0 
C -15 3.978047 -13.419505 7.793698 -10.606602 10.606602 
C -7.793698 13.419505 -3.978047 15 0 15 
z
" style="stroke: #222222; stroke-width: 1.2"/>
    </defs>
    <g clip-path="url(#pc901902448)">
     <use xlink:href="#mcbaf11e2dd" x="261.207301" y="148.227327" style="fill: #1f77b4; stroke: #222222; stroke-width: 1.2"/>
     <use xlink:href="#mcbaf11e2dd" x="233.780901" y="219.66843" style="fill: #1f77b4; stroke: #222222; stroke-width: 1.2"/>
     <use xlink:href="#mcbaf11e2dd" x="152.428493" y="50.882048" style="fill: #1f77b4; stroke: #222222; stroke-width: 1.2"/>
    </g>
   </g>
   <g id="PathCollection_2">
    <defs>
     <path id="m3c3e2499ee" d="M 0 15 
C 3.978047 15 7.793698 13.419505 10.606602 10.606602 
C 13.419505 7.793698 15 3.978047 15 0 
C 15 -3.978047 13.419505 -7.793698 10.606602 -10.606602 
C 7.793698 -13.419505 3.978047 -15 0 -15 
C -3.978047 -15 -7.793698 -13.419505 -10.606602 -10.606602 
C -13.419505 -7.793698 -15 -3.978047 -15 0 
C -15 3.978047 -13.419505 7.793698 -10.606602 10.606602 
C -7.793698 13.419505 -3.978047 15 0 15 
z
" style="stroke: #9e9e9e; stroke-width: 2"/>
    </defs>
    <g clip-path="url(#pc901902448)">
     <use xlink:href="#m3c3e2499ee" x="268.12285" y="48.89157" style="fill: #ffffff; stroke: #9e9e9e; stroke-width: 2"/>
     <use xlink:href="#m3c3e2499ee" x="167.140096" y="170.103501" style="fill: #ffffff; stroke: #9e9e9e; stroke-width: 2"/>
     <use xlink:href="#m3c3e2499ee" x="223.450832" y="55.984731" style="fill: #ffffff; stroke: #9e9e9e; stroke-width: 2"/>
    </g>
   </g>
   <g id="PathCollection_3">
    <defs>
     <path id="m17fb7f5a7f" d="M 0 15 
C 3.978047 15 7.793698 13.419505 10.606602 10.606602 
C 13.419505 7.793698 15 3.978047 15 0 
C 15 -3.978047 13.419505 -7.793698 10.606602 -10.606602 
C 7.793698 -13.419505 3.978047 -15 0 -15 
C -3.978047 -15 -7.793698 -13.419505 -10.606602 -10.606602 
C -13.419505 -7.793698 -15 -3.978047 -15 0 
C -15 3.978047 -13.419505 7.793698 -10.606602 10.606602 
C -7.793698 13.419505 -3.978047 15 0 15 
z
" style="stroke: #d62728; stroke-width: 2"/>
    </defs>
    <g clip-path="url(#pc901902448)">
     <use xlink:href="#m17fb7f5a7f" x="34.216216" y="192.34674" style="fill: #ffffff; stroke: #d62728; stroke-width: 2"/>
    </g>
   </g>
   <g id="text_1">
    <g id="patch_10">
     <path d="M 12.912 46.770925 
L 50.876063 46.770925 
Q 52.876063 46.770925 52.876063 44.770925 
L 52.876063 35.0928 
Q 52.876063 33.0928 50.876063 33.0928 
L 12.912 33.0928 
Q 10.912 33.0928 10.912 35.0928 
L 10.912 44.770925 
Q 10.912 46.770925 12.912 46.770925 
z
" style="fill: #ffffff; opacity: 0.95; stroke: #444444; stroke-linejoin: miter"/>
    </g>
    <!-- U=0.22 -->
    <g transform="translate(12.912 42.691237) scale(0.1 -0.1)">
     <defs>
      <path id="DejaVuSans-55" d="M 556 4666 
L 1191 4666 
L 1191 1831 
Q 1191 1081 1462 751 
Q 1734 422 2344 422 
Q 2950 422 3222 751 
Q 3494 1081 3494 1831 
L 3494 4666 
L 4128 4666 
L 4128 1753 
Q 4128 841 3676 375 
Q 3225 -91 2344 -91 
Q 1459 -91 1007 375 
Q 556 841 556 1753 
L 556 4666 
z
" transform="scale(0.015625)"/>
      <path id="DejaVuSans-3d" d="M 678 2906 
L 4684 2906 
L 4684 2381 
L 678 2381 
L 678 2906 
z
M 678 1631 
L 4684 1631 
L 4684 1100 
L 678 1100 
L 678 1631 
z
" transform="scale(0.015625)"/>
      <path id="DejaVuSans-30" d="M 2034 4250 
Q 1547 4250 1301 3770 
Q 1056 3291 1056 2328 
Q 1056 1369 1301 889 
Q 1547 409 2034 409 
Q 2525 409 2770 889 
Q 3016 1369 3016 2328 
Q 3016 3291 2770 3770 
Q 2525 4250 2034 4250 
z
M 2034 4750 
Q 2819 4750 3233 4129 
Q 3647 3509 3647 2328 
Q 3647 1150 3233 529 
Q 2819 -91 2034 -91 
Q 1250 -91 836 529 
Q 422 1150 422 2328 
Q 422 3509 836 4129 
Q 1250 4750 2034 4750 
z
" transform="scale(0.015625)"/>
      <path id="DejaVuSans-2e" d="M 684 794 
L 1344 794 
L 1344 0 
L 684 0 
L 684 794 
z
" transform="scale(0.015625)"/>
      <path id="DejaVuSans-32" d="M 1228 531 
L 3431 531 
L 3431 0 
L 469 0 
L 469 531 
Q 828 903 1448 1529 
Q 2069 2156 2228 2338 
Q 2531 2678 2651 2914 
Q 2772 3150 2772 3378 
Q 2772 3750 2511 3984 
Q 2250 4219 1831 4219 
Q 1534 4219 1204 4116 
Q 875 4013 500 3803 
L 500 4441 
Q 881 4594 1212 4672 
Q 1544 4750 1819 4750 
Q 2544 4750 2975 4387 
Q 3406 4025 3406 3419 
Q 3406 3131 3298 2873 
Q 3191 2616 2906 2266 
Q 2828 2175 2409 1742 
Q 1991 1309 1228 531 
z
" transform="scale(0.015625)"/>
     </defs>
     <use xlink:href="#DejaVuSans-55"/>
     <use xlink:href="#DejaVuSans-3d" x="73.193359"/>
     <use xlink:href="#DejaVuSans-30" x="156.982422"/>
     <use xlink:href="#DejaVuSans-2e" x="220.605469"/>
     <use xlink:href="#DejaVuSans-32" x="252.392578"/>
     <use xlink:href="#DejaVuSans-32" x="316.015625"/>
    </g>
   </g>
  </g>
  <g id="axes_2">
   <g id="patch_11">
    <path d="M 335.324548 214.487545 
Q 351.48963 202.421777 366.221161 191.426025 
" clip-path="url(#p64f1107e51)" style="fill: none; stroke: #444444; stroke-width: 1.6; stroke-linecap: round"/>
    <path d="M 360.938965 192.373868 
L 366.221161 191.426025 
L 363.810118 196.220487 
z
" clip-path="url(#p64f1107e51)" style="fill: #444444; stroke: #444444; stroke-width: 1.6; stroke-linecap: round"/>
   </g>
   <g id="patch_12">
    <path d="M 379.99694 178.40289 
Q 387.337175 169.200987 393.561896 161.397521 
" clip-path="url(#p64f1107e51)" style="fill: none; stroke: #444444; stroke-width: 1.6; stroke-linecap: round"/>
    <path d="M 388.692456 163.653302 
L 393.561896 161.397521 
L 392.444856 166.646542 
z
" clip-path="url(#p64f1107e51)" style="fill: #444444; stroke: #444444; stroke-width: 1.6; stroke-linecap: round"/>
   </g>
   <g id="patch_13">
    <path d="M 403.129152 145.121814 
Q 408.108559 131.892618 412.457811 120.33761 
" clip-path="url(#p64f1107e51)" style="fill: none; stroke: #444444; stroke-width: 1.6; stroke-linecap: round"/>
    <path d="M 408.520766 123.984482 
L 412.457811 120.33761 
L 413.013082 125.675369 
z
" clip-path="url(#p64f1107e51)" style="fill: #444444; stroke: #444444; stroke-width: 1.6; stroke-linecap: round"/>
   </g>
   <g id="patch_14">
    <path d="M 424.013462 106.947734 
Q 437.692372 100.675826 449.745206 95.14949 
" clip-path="url(#p64f1107e51)" style="fill: none; stroke: #444444; stroke-width: 1.6; stroke-linecap: round"/>
    <path d="M 444.381698 94.968456 
L 449.745206 95.14949 
L 446.382275 99.331677 
z
" clip-path="url(#p64f1107e51)" style="fill: #444444; stroke: #444444; stroke-width: 1.6; stroke-linecap: round"/>
   </g>
   <g id="patch_15">
    <path d="M 422.816642 105.04249 
Q 453.467849 79.725053 482.739848 55.546821 
" clip-path="url(#p64f1107e51)" style="fill: none; stroke: #444444; stroke-width: 1.6; stroke-linecap: round"/>
    <path d="M 477.510643 56.753227 
L 482.739848 55.546821 
L 480.56745 60.454029 
z
" clip-path="url(#p64f1107e51)" style="fill: #444444; stroke: #444444; stroke-width: 1.6; stroke-linecap: round"/>
   </g>
   <g id="patch_16">
    <path d="M 467.844542 91.799336 
Q 511.82918 96.946142 554.037086 101.885045 
" clip-path="url(#p64f1107e51)" style="fill: none; stroke: #444444; stroke-width: 1.6; stroke-linecap: round"/>
    <path d="M 549.548543 98.94345 
L 554.037086 101.885045 
L 548.990684 103.710922 
z
" clip-path="url(#p64f1107e51)" style="fill: #444444; stroke: #444444; stroke-width: 1.6; stroke-linecap: round"/>
   </g>
   <g id="patch_17">
    <path d="M 464.455249 83.875244 
Q 475.020809 69.843554 484.510333 57.240902 
" clip-path="url(#p64f1107e51)" style="fill: none; stroke: #444444; stroke-width: 1.6; stroke-linecap: round"/>
    <path d="M 479.705774 59.631761 
L 484.510333 57.240902 
L 483.540285 62.519065 
z
" clip-path="url(#p64f1107e51)" style="fill: #444444; stroke: #444444; stroke-width: 1.6; stroke-linecap: round"/>
   </g>
   <g id="patch_18">
    <path d="M 557.44507 97.966298 
Q 527.60831 75.996641 499.212031 55.087651 
" clip-path="url(#p64f1107e51)" style="fill: none; stroke: #444444; stroke-width: 1.6; stroke-linecap: round"/>
    <path d="M 501.654213 59.866328 
L 499.212031 55.087651 
L 504.500281 56.001112 
z
" clip-path="url(#p64f1107e51)" style="fill: #444444; stroke: #444444; stroke-width: 1.6; stroke-linecap: round"/>
   </g>
   <g id="PathCollection_4">
    <g clip-path="url(#p64f1107e51)">
     <use xlink:href="#mcbaf11e2dd" x="400.077491" y="153.229409" style="fill: #1f77b4; stroke: #222222; stroke-width: 1.2"/>
     <use xlink:href="#mcbaf11e2dd" x="416.138658" y="110.558404" style="fill: #1f77b4; stroke: #222222; stroke-width: 1.2"/>
     <use xlink:href="#mcbaf11e2dd" x="459.246172" y="90.793209" style="fill: #1f77b4; stroke: #222222; stroke-width: 1.2"/>
    </g>
   </g>
   <g id="PathCollection_5">
    <g clip-path="url(#p64f1107e51)">
     <use xlink:href="#m3c3e2499ee" x="328.383471" y="219.66843" style="fill: #ffffff; stroke: #9e9e9e; stroke-width: 2"/>
     <use xlink:href="#m3c3e2499ee" x="374.593389" y="185.176916" style="fill: #ffffff; stroke: #9e9e9e; stroke-width: 2"/>
     <use xlink:href="#m3c3e2499ee" x="564.416529" y="103.099583" style="fill: #ffffff; stroke: #9e9e9e; stroke-width: 2"/>
     <use xlink:href="#m3c3e2499ee" x="490.797199" y="48.89157" style="fill: #ffffff; stroke: #9e9e9e; stroke-width: 2"/>
    </g>
   </g>
   <g id="text_2">
    <g id="patch_19">
     <path d="M 309.312 46.770925 
L 347.276063 46.770925 
Q 349.276063 46.770925 349.276063 44.770925 
L 349.276063 35.0928 
Q 349.276063 33.0928 347.276063 33.0928 
L 309.312 33.0928 
Q 307.312 33.0928 307.312 35.0928 
L 307.312 44.770925 
Q 307.312 46.770925 309.312 46.770925 
z
" style="fill: #ffffff; opacity: 0.95; stroke: #444444; stroke-linejoin: miter"/>
    </g>
    <!-- U=0.48 -->
    <g transform="translate(309.312 42.691237) scale(0.1 -0.1)">
     <defs>
      <path id="DejaVuSans-34" d="M 2419 4116 
L 825 1625 
L 2419 1625 
L 2419 4116 
z
M 2253 4666 
L 3047 4666 
L 3047 1625 
L 3713 1625 
L 3713 1100 
L 3047 1100 
L 3047 0 
L 2419 0 
L 2419 1100 
L 313 1100 
L 313 1709 
L 2253 4666 
z
" transform="scale(0.015625)"/>
      <path id="DejaVuSans-38" d="M 2034 2216 
Q 1584 2216 1326 1975 
Q 1069 1734 1069 1313 
Q 1069 891 1326 650 
Q 1584 409 2034 409 
Q 2484 409 2743 651 
Q 3003 894 3003 1313 
Q 3003 1734 2745 1975 
Q 2488 2216 2034 2216 
z
M 1403 2484 
Q 997 2584 770 2862 
Q 544 3141 544 3541 
Q 544 4100 942 4425 
Q 1341 4750 2034 4750 
Q 2731 4750 3128 4425 
Q 3525 4100 3525 3541 
Q 3525 3141 3298 2862 
Q 3072 2584 2669 2484 
Q 3125 2378 3379 2068 
Q 3634 1759 3634 1313 
Q 3634 634 3220 271 
Q 2806 -91 2034 -91 
Q 1263 -91 848 271 
Q 434 634 434 1313 
Q 434 1759 690 2068 
Q 947 2378 1403 2484 
z
M 1172 3481 
Q 1172 3119 1398 2916 
Q 1625 2713 2034 2713 
Q 2441 2713 2670 2916 
Q 2900 3119 2900 3481 
Q 2900 3844 2670 4047 
Q 2441 4250 2034 4250 
Q 1625 4250 1398 4047 
Q 1172 3844 1172 3481 
z
" transform="scale(0.015625)"/>
     </defs>
     <use xlink:href="#DejaVuSans-55"/>
     <use xlink:href="#DejaVuSans-3d" x="73.193359"/>
     <use xlink:href="#DejaVuSans-30" x="156.982422"/>
     <use xlink:href="#DejaVuSans-2e" x="220.605469"/>
     <use xlink:href="#DejaVuSans-34" x="252.392578"/>
     <use xlink:href="#DejaVuSans-38" x="316.015625"/>
    </g>
   </g>
  </g>
  <g id="axes_3">
   <g id="patch_20">
    <path d="M 854.136649 54.400878 
Q 829.387129 74.81333 806.017645 94.087581 
" clip-path="url(#p269bd40acd)" style="fill: none; stroke: #444444; stroke-width: 1.6; stroke-linecap: round"/>
    <path d="M 811.247726 92.884981 
L 806.017645 94.087581 
L 808.193614 89.181956 
z
" clip-path="url(#p269bd40acd)" style="fill: #444444; stroke: #444444; stroke-width: 1.6; stroke-linecap: round"/>
   </g>
   <g id="patch_21">
    <path d="M 790.278539 104.751539 
Q 756.51809 122.404723 724.34286 139.229003 
" clip-path="url(#p269bd40acd)" style="fill: none; stroke: #444444; stroke-width: 1.6; stroke-linecap: round"/>
    <path d="M 729.708539 139.131616 
L 724.34286 139.229003 
L 727.484358 134.878027 
z
" clip-path="url(#p269bd40acd)" style="fill: #444444; stroke: #444444; stroke-width: 1.6; stroke-linecap: round"/>
   </g>
   <g id="patch_22">
    <path d="M 706.959401 147.071492 
Q 672.060007 159.960969 638.838676 172.230683 
" clip-path="url(#p269bd40acd)" style="fill: none; stroke: #444444; stroke-width: 1.6; stroke-linecap: round"/>
    <path d="M 644.17289 172.819042 
L 638.838676 172.230683 
L 642.509891 168.316328 
z
" clip-path="url(#p269bd40acd)" style="fill: #444444; stroke: #444444; stroke-width: 1.6; stroke-linecap: round"/>
   </g>
   <g id="patch_23">
    <path d="M 627.788733 167.278566 
Q 626.908836 161.224524 626.286228 156.940737 
" clip-path="url(#p269bd40acd)" style="fill: none; stroke: #444444; stroke-width: 1.6; stroke-linecap: round"/>
    <path d="M 624.601563 162.036019 
L 626.286228 156.940737 
L 629.351655 161.345638 
z
" clip-path="url(#p269bd40acd)" style="fill: #444444; stroke: #444444; stroke-width: 1.6; stroke-linecap: round"/>
   </g>
   <g id="patch_24">
    <path d="M 629.788457 184.476429 
Q 630.94905 197.757199 631.953911 209.255907 
" clip-path="url(#p269bd40acd)" style="fill: none; stroke: #444444; stroke-width: 1.6; stroke-linecap: round"/>
    <path d="M 633.926924 204.265194 
L 631.953911 209.255907 
L 629.145148 204.683068 
z
" clip-path="url(#p269bd40acd)" style="fill: #444444; stroke: #444444; stroke-width: 1.6; stroke-linecap: round"/>
   </g>
   <g id="patch_25">
    <path d="M 633.219352 144.64351 
Q 650.98983 140.519612 667.01776 136.800098 
" clip-path="url(#p269bd40acd)" style="fill: none; stroke: #444444; stroke-width: 1.6; stroke-linecap: round"/>
    <path d="M 661.799475 135.547299 
L 667.01776 136.800098 
L 662.88455 140.223047 
z
" clip-path="url(#p269bd40acd)" style="fill: #444444; stroke: #444444; stroke-width: 1.6; stroke-linecap: round"/>
   </g>
   <g id="patch_26">
    <path d="M 625.735816 155.212804 
Q 628.823659 183.134789 631.714875 209.278759 
" clip-path="url(#p269bd40acd)" style="fill: none; stroke: #444444; stroke-width: 1.6; stroke-linecap: round"/>
    <path d="M 633.572725 204.24404 
L 631.714875 209.278759 
L 628.80181 204.771648 
z
" clip-path="url(#p269bd40acd)" style="fill: #444444; stroke: #444444; stroke-width: 1.6; stroke-linecap: round"/>
   </g>
   <g id="patch_27">
    <path d="M 673.201422 142.118781 
Q 655.031173 177.051385 637.686406 210.396987 
" clip-path="url(#p269bd40acd)" style="fill: none; stroke: #444444; stroke-width: 1.6; stroke-linecap: round"/>
    <path d="M 642.030595 207.246111 
L 637.686406 210.396987 
L 637.772219 205.03111 
z
" clip-path="url(#p269bd40acd)" style="fill: #444444; stroke: #444444; stroke-width: 1.6; stroke-linecap: round"/>
   </g>
   <g id="PathCollection_6">
    <g clip-path="url(#p269bd40acd)">
     <use xlink:href="#mcbaf11e2dd" x="797.954295" y="100.737921" style="fill: #1f77b4; stroke: #222222; stroke-width: 1.2"/>
     <use xlink:href="#mcbaf11e2dd" x="715.081422" y="144.071767" style="fill: #1f77b4; stroke: #222222; stroke-width: 1.2"/>
     <use xlink:href="#mcbaf11e2dd" x="624.783471" y="146.601179" style="fill: #1f77b4; stroke: #222222; stroke-width: 1.2"/>
     <use xlink:href="#mcbaf11e2dd" x="677.196621" y="134.437945" style="fill: #1f77b4; stroke: #222222; stroke-width: 1.2"/>
     <use xlink:href="#mcbaf11e2dd" x="632.86385" y="219.66843" style="fill: #1f77b4; stroke: #222222; stroke-width: 1.2"/>
    </g>
   </g>
   <g id="PathCollection_7">
    <g clip-path="url(#p269bd40acd)">
     <use xlink:href="#m3c3e2499ee" x="860.816529" y="48.89157" style="fill: #ffffff; stroke: #9e9e9e; stroke-width: 2"/>
     <use xlink:href="#m3c3e2499ee" x="629.034742" y="175.851594" style="fill: #ffffff; stroke: #9e9e9e; stroke-width: 2"/>
    </g>
   </g>
   <g id="text_3">
    <g id="patch_28">
     <path d="M 605.712 46.770925 
L 643.676062 46.770925 
Q 645.676062 46.770925 645.676062 44.770925 
L 645.676062 35.0928 
Q 645.676062 33.0928 643.676062 33.0928 
L 605.712 33.0928 
Q 603.712 33.0928 603.712 35.0928 
L 603.712 44.770925 
Q 603.712 46.770925 605.712 46.770925 
z
" style="fill: #ffffff; opacity: 0.95; stroke: #444444; stroke-linejoin: miter"/>
    </g>
    <!-- U=0.31 -->
    <g transform="translate(605.712 42.691237) scale(0.1 -0.1)">
     <defs>
      <path id="DejaVuSans-33" d="M 2597 2516 
Q 3050 2419 3304 2112 
Q 3559 1806 3559 1356 
Q 3559 666 3084 287 
Q 2609 -91 1734 -91 
Q 1441 -91 1130 -33 
Q 819 25 488 141 
L 488 750 
Q 750 597 1062 519 
Q 1375 441 1716 441 
Q 2309 441 2620 675 
Q 2931 909 2931 1356 
Q 2931 1769 2642 2001 
Q 2353 2234 1838 2234 
L 1294 2234 
L 1294 2753 
L 1863 2753 
Q 2328 2753 2575 2939 
Q 2822 3125 2822 3475 
Q 2822 3834 2567 4026 
Q 2313 4219 1838 4219 
Q 1578 4219 1281 4162 
Q 984 4106 628 3988 
L 628 4550 
Q 988 4650 1302 4700 
Q 1616 4750 1894 4750 
Q 2613 4750 3031 4423 
Q 3450 4097 3450 3541 
Q 3450 3153 3228 2886 
Q 3006 2619 2597 2516 
z
" transform="scale(0.015625)"/>
      <path id="DejaVuSans-31" d="M 794 531 
L 1825 531 
L 1825 4091 
L 703 3866 
L 703 4441 
L 1819 4666 
L 2450 4666 
L 2450 531 
L 3481 531 
L 3481 0 
L 794 0 
L 794 531 
z
" transform="scale(0.015625)"/>
     </defs>
     <use xlink:href="#DejaVuSans-55"/>
     <use xlink:href="#DejaVuSans-3d" x="73.193359"/>
     <use xlink:href="#DejaVuSans-30" x="156.982422"/>
     <use xlink:href="#DejaVuSans-2e" x="220.605469"/>
     <use xlink:href="#DejaVuSans-33" x="252.392578"/>
     <use xlink:href="#DejaVuSans-31" x="316.015625"/>
    </g>
   </g>
  </g>
  <g id="axes_4">
   <g id="patch_29">
    <path d="M 99.825927 435.672709 
Q 179.652046 422.253278 257.714065 409.130407 
" clip-path="url(#pf419523846)" style="fill: none; stroke: #444444; stroke-width: 1.6; stroke-linecap: round"/>
    <path d="M 252.582609 407.559371 
L 257.714065 409.130407 
L 253.378363 412.29295 
z
" clip-path="url(#pf419523846)" style="fill: #444444; stroke: #444444; stroke-width: 1.6; stroke-linecap: round"/>
   </g>
   <g id="patch_30">
    <path d="M 264.054853 399.695761 
Q 259.006926 389.88104 254.777175 381.657103 
" clip-path="url(#pf419523846)" style="fill: none; stroke: #444444; stroke-width: 1.6; stroke-linecap: round"/>
    <path d="M 254.838308 387.023318 
L 254.777175 381.657103 
L 259.106827 384.827925 
z
" clip-path="url(#pf419523846)" style="fill: #444444; stroke: #444444; stroke-width: 1.6; stroke-linecap: round"/>
   </g>
   <g id="patch_31">
    <path d="M 241.871829 369.357072 
Q 202.232324 354.69622 164.270596 340.655901 
" clip-path="url(#pf419523846)" style="fill: none; stroke: #444444; stroke-width: 1.6; stroke-linecap: round"/>
    <path d="M 167.940013 344.571942 
L 164.270596 340.655901 
L 169.605079 340.069992 
z
" clip-path="url(#pf419523846)" style="fill: #444444; stroke: #444444; stroke-width: 1.6; stroke-linecap: round"/>
   </g>
   <g id="patch_32">
    <path d="M 163.004802 335.577208 
Q 210.417805 327.497413 256.067376 319.718129 
" clip-path="url(#pf419523846)" style="fill: none; stroke: #444444; stroke-width: 1.6; stroke-linecap: round"/>
    <path d="M 250.932412 318.158595 
L 256.067376 319.718129 
L 251.73877 322.89038 
z
" clip-path="url(#pf419523846)" style="fill: #444444; stroke: #444444; stroke-width: 1.6; stroke-linecap: round"/>
   </g>
   <g id="patch_33">
    <path d="M 146.026814 335.125657 
Q 93.228519 323.209295 42.175187 311.686763 
" clip-path="url(#pf419523846)" style="fill: none; stroke: #444444; stroke-width: 1.6; stroke-linecap: round"/>
    <path d="M 46.329035 315.084637 
L 42.175187 311.686763 
L 47.385795 310.402409 
z
" clip-path="url(#pf419523846)" style="fill: #444444; stroke: #444444; stroke-width: 1.6; stroke-linecap: round"/>
   </g>
   <g id="patch_34">
    <path d="M 257.718471 317.645897 
Q 149.178914 313.674569 42.427014 309.76865 
" clip-path="url(#pf419523846)" style="fill: none; stroke: #444444; stroke-width: 1.6; stroke-linecap: round"/>
    <path d="M 47.13605 312.342554 
L 42.427014 309.76865 
L 47.311558 307.545763 
z
" clip-path="url(#pf419523846)" style="fill: #444444; stroke: #444444; stroke-width: 1.6; stroke-linecap: round"/>
   </g>
   <g id="patch_35">
    <path d="M 33.736983 300.906409 
Q 36.435007 287.858543 38.770797 276.562473 
" clip-path="url(#pf419523846)" style="fill: none; stroke: #444444; stroke-width: 1.6; stroke-linecap: round"/>
    <path d="M 35.44854 280.777044 
L 38.770797 276.562473 
L 40.1491 281.749021 
z
" clip-path="url(#pf419523846)" style="fill: #444444; stroke: #444444; stroke-width: 1.6; stroke-linecap: round"/>
   </g>
   <g id="PathCollection_8">
    <g clip-path="url(#pf419523846)">
     <use xlink:href="#mcbaf11e2dd" x="91.285472" y="437.10843" style="fill: #1f77b4; stroke: #222222; stroke-width: 1.2"/>
     <use xlink:href="#mcbaf11e2dd" x="268.016529" y="407.398477" style="fill: #1f77b4; stroke: #222222; stroke-width: 1.2"/>
     <use xlink:href="#mcbaf11e2dd" x="249.996511" y="372.362023" style="fill: #1f77b4; stroke: #222222; stroke-width: 1.2"/>
     <use xlink:href="#mcbaf11e2dd" x="31.983471" y="309.386534" style="fill: #1f77b4; stroke: #222222; stroke-width: 1.2"/>
    </g>
   </g>
   <g id="PathCollection_9">
    <g clip-path="url(#pf419523846)">
     <use xlink:href="#m3c3e2499ee" x="154.471008" y="337.031478" style="fill: #ffffff; stroke: #9e9e9e; stroke-width: 2"/>
     <use xlink:href="#m3c3e2499ee" x="266.369912" y="317.962443" style="fill: #ffffff; stroke: #9e9e9e; stroke-width: 2"/>
     <use xlink:href="#m3c3e2499ee" x="40.886333" y="266.33157" style="fill: #ffffff; stroke: #9e9e9e; stroke-width: 2"/>
    </g>
   </g>
   <g id="text_4">
    <g id="patch_36">
     <path d="M 12.912 264.210925 
L 50.876063 264.210925 
Q 52.876063 264.210925 52.876063 262.210925 
L 52.876063 252.5328 
Q 52.876063 250.5328 50.876063 250.5328 
L 12.912 250.5328 
Q 10.912 250.5328 10.912 252.5328 
L 10.912 262.210925 
Q 10.912 264.210925 12.912 264.210925 
z
" style="fill: #ffffff; opacity: 0.95; stroke: #444444; stroke-linejoin: miter"/>
    </g>
    <!-- U=0.62 -->
    <g transform="translate(12.912 260.131237) scale(0.1 -0.1)">
     <defs>
      <path id="DejaVuSans-36" d="M 2113 2584 
Q 1688 2584 1439 2293 
Q 1191 2003 1191 1497 
Q 1191 994 1439 701 
Q 1688 409 2113 409 
Q 2538 409 2786 701 
Q 3034 994 3034 1497 
Q 3034 2003 2786 2293 
Q 2538 2584 2113 2584 
z
M 3366 4563 
L 3366 3988 
Q 3128 4100 2886 4159 
Q 2644 4219 2406 4219 
Q 1781 4219 1451 3797 
Q 1122 3375 1075 2522 
Q 1259 2794 1537 2939 
Q 1816 3084 2150 3084 
Q 2853 3084 3261 2657 
Q 3669 2231 3669 1497 
Q 3669 778 3244 343 
Q 2819 -91 2113 -91 
Q 1303 -91 875 529 
Q 447 1150 447 2328 
Q 447 3434 972 4092 
Q 1497 4750 2381 4750 
Q 2619 4750 2861 4703 
Q 3103 4656 3366 4563 
z
" transform="scale(0.015625)"/>
     </defs>
     <use xlink:href="#DejaVuSans-55"/>
     <use xlink:href="#DejaVuSans-3d" x="73.193359"/>
     <use xlink:href="#DejaVuSans-30" x="156.982422"/>
     <use xlink:href="#DejaVuSans-2e" x="220.605469"/>
     <use xlink:href="#DejaVuSans-36" x="252.392578"/>
     <use xlink:href="#DejaVuSans-32" x="316.015625"/>
    </g>
   </g>
  </g>
  <g id="axes_5">
   <g id="patch_37">
    <path d="M 557.156129 432.554423 
Q 535.127566 418.936664 514.62059 406.25953 
" clip-path="url(#p6fc21f27b9)" style="fill: none; stroke: #444444; stroke-width: 1.6; stroke-linecap: round"/>
    <path d="M 517.441455 410.824913 
L 514.62059 406.25953 
L 519.965415 406.742067 
z
" clip-path="url(#p6fc21f27b9)" style="fill: #444444; stroke: #444444; stroke-width: 1.6; stroke-linecap: round"/>
   </g>
   <g id="patch_38">
    <path d="M 498.941704 395.393348 
Q 482.289362 382.220984 467.040004 370.15841 
" clip-path="url(#p6fc21f27b9)" style="fill: none; stroke: #444444; stroke-width: 1.6; stroke-linecap: round"/>
    <path d="M 469.315664 375.018592 
L 467.040004 370.15841 
L 472.293545 371.253991 
z
" clip-path="url(#p6fc21f27b9)" style="fill: #444444; stroke: #444444; stroke-width: 1.6; stroke-linecap: round"/>
   </g>
   <g id="patch_39">
    <path d="M 451.773286 358.679045 
Q 429.949406 343.257855 409.586454 328.868986 
" clip-path="url(#p6fc21f27b9)" style="fill: none; stroke: #444444; stroke-width: 1.6; stroke-linecap: round"/>
    <path d="M 412.121533 333.599036 
L 409.586454 328.868986 
L 414.891542 329.678953 
z
" clip-path="url(#p6fc21f27b9)" style="fill: #444444; stroke: #444444; stroke-width: 1.6; stroke-linecap: round"/>
   </g>
   <g id="patch_40">
    <path d="M 396.357399 330.115006 
Q 388.003189 343.065607 380.618681 354.512985 
" clip-path="url(#p6fc21f27b9)" style="fill: none; stroke: #444444; stroke-width: 1.6; stroke-linecap: round"/>
    <path d="M 385.237451 351.78041 
L 380.618681 354.512985 
L 381.203883 349.178424 
z
" clip-path="url(#p6fc21f27b9)" style="fill: #444444; stroke: #444444; stroke-width: 1.6; stroke-linecap: round"/>
   </g>
   <g id="patch_41">
    <path d="M 367.487611 358.911869 
Q 352.786537 350.282566 339.628182 342.558814 
" clip-path="url(#p6fc21f27b9)" style="fill: none; stroke: #444444; stroke-width: 1.6; stroke-linecap: round"/>
    <path d="M 342.552802 347.058436 
L 339.628182 342.558814 
L 344.982651 342.918891 
z
" clip-path="url(#p6fc21f27b9)" style="fill: #444444; stroke: #444444; stroke-width: 1.6; stroke-linecap: round"/>
   </g>
   <g id="patch_42">
    <path d="M 372.560466 354.970593 
Q 361.013554 314.812799 349.960977 276.374199 
" clip-path="url(#p6fc21f27b9)" style="fill: none; stroke: #444444; stroke-width: 1.6; stroke-linecap: round"/>
    <path d="M 348.980874 281.650505 
L 349.960977 276.374199 
L 353.593959 280.324065 
z
" clip-path="url(#p6fc21f27b9)" style="fill: #444444; stroke: #444444; stroke-width: 1.6; stroke-linecap: round"/>
   </g>
   <g id="patch_43">
    <path d="M 332.573914 328.830397 
Q 338.845285 301.798053 344.712387 276.508282 
" clip-path="url(#p6fc21f27b9)" style="fill: none; stroke: #444444; stroke-width: 1.6; stroke-linecap: round"/>
    <path d="M 341.289711 280.641718 
L 344.712387 276.508282 
L 345.96553 281.726485 
z
" clip-path="url(#p6fc21f27b9)" style="fill: #444444; stroke: #444444; stroke-width: 1.6; stroke-linecap: round"/>
   </g>
   <g id="patch_44">
    <path d="M 330.616216 347.515541 
C 334.338182 347.515541 337.908207 346.435894 340.540034 344.514378 
C 343.171862 342.592863 344.650614 339.986363 344.650614 337.26893 
C 344.650614 334.551497 343.171862 331.944997 340.540034 330.023481 
C 337.908207 328.101966 334.338182 327.022318 330.616216 327.022318 
C 326.89425 327.022318 323.324226 328.101966 320.692398 330.023481 
C 318.060571 331.944997 316.581818 334.551497 316.581818 337.26893 
C 316.581818 339.986363 318.060571 342.592863 320.692398 344.514378 
C 323.324226 346.435894 326.89425 347.515541 330.616216 347.515541 
L 330.616216 347.515541 
z
" clip-path="url(#p6fc21f27b9)" style="fill: none; stroke-dasharray: 6,4; stroke-dashoffset: 0; stroke: #d62728; stroke-width: 2; stroke-linejoin: miter"/>
   </g>
   <g id="PathCollection_10">
    <g clip-path="url(#p6fc21f27b9)">
     <use xlink:href="#mcbaf11e2dd" x="564.52285" y="437.10843" style="fill: #1f77b4; stroke: #222222; stroke-width: 1.2"/>
     <use xlink:href="#mcbaf11e2dd" x="505.732609" y="400.765101" style="fill: #1f77b4; stroke: #222222; stroke-width: 1.2"/>
     <use xlink:href="#mcbaf11e2dd" x="458.845889" y="363.676688" style="fill: #1f77b4; stroke: #222222; stroke-width: 1.2"/>
     <use xlink:href="#mcbaf11e2dd" x="374.953899" y="363.294465" style="fill: #1f77b4; stroke: #222222; stroke-width: 1.2"/>
     <use xlink:href="#mcbaf11e2dd" x="347.073334" y="266.33157" style="fill: #1f77b4; stroke: #222222; stroke-width: 1.2"/>
    </g>
   </g>
   <g id="PathCollection_11">
    <g clip-path="url(#p6fc21f27b9)">
     <use xlink:href="#m3c3e2499ee" x="401.05161" y="322.838094" style="fill: #ffffff; stroke: #9e9e9e; stroke-width: 2"/>
    </g>
   </g>
   <g id="PathCollection_12">
    <g clip-path="url(#p6fc21f27b9)">
     <use xlink:href="#m17fb7f5a7f" x="330.616216" y="337.26893" style="fill: #ffffff; stroke: #d62728; stroke-width: 2"/>
    </g>
   </g>
   <g id="text_5">
    <g id="patch_45">
     <path d="M 309.312 264.210925 
L 347.276063 264.210925 
Q 349.276063 264.210925 349.276063 262.210925 
L 349.276063 252.5328 
Q 349.276063 250.5328 347.276063 250.5328 
L 309.312 250.5328 
Q 307.312 250.5328 307.312 252.5328 
L 307.312 262.210925 
Q 307.312 264.210925 309.312 264.210925 
z
" style="fill: #ffffff; opacity: 0.95; stroke: #444444; stroke-linejoin: miter"/>
    </g>
    <!-- U=0.27 -->
    <g transform="translate(309.312 260.131237) scale(0.1 -0.1)">
     <defs>
      <path id="DejaVuSans-37" d="M 525 4666 
L 3525 4666 
L 3525 4397 
L 1831 0 
L 1172 0 
L 2766 4134 
L 525 4134 
L 525 4666 
z
" transform="scale(0.015625)"/>
     </defs>
     <use xlink:href="#DejaVuSans-55"/>
     <use xlink:href="#DejaVuSans-3d" x="73.193359"/>
     <use xlink:href="#DejaVuSans-30" x="156.982422"/>
     <use xlink:href="#DejaVuSans-2e" x="220.605469"/>
     <use xlink:href="#DejaVuSans-32" x="252.392578"/>
     <use xlink:href="#DejaVuSans-37" x="316.015625"/>
    </g>
   </g>
  </g>
  <g id="axes_6">
   <g id="patch_46">
    <path d="M 634.514284 422.387287 
Q 662.698035 406.085519 689.333302 390.679409 
" clip-path="url(#pd8b2cafd70)" style="fill: none; stroke: #444444; stroke-width: 1.6; stroke-linecap: round"/>
    <path d="M 683.976638 391.005204 
L 689.333302 390.679409 
L 686.37994 395.160218 
z
" clip-path="url(#pd8b2cafd70)" style="fill: #444444; stroke: #444444; stroke-width: 1.6; stroke-linecap: round"/>
   </g>
   <g id="patch_47">
    <path d="M 705.229354 380.154492 
Q 732.059703 359.425728 757.474461 339.79063 
" clip-path="url(#pd8b2cafd70)" style="fill: none; stroke: #444444; stroke-width: 1.6; stroke-linecap: round"/>
    <path d="M 752.208728 340.82603 
L 757.474461 339.79063 
L 755.143341 344.624456 
z
" clip-path="url(#pd8b2cafd70)" style="fill: #444444; stroke: #444444; stroke-width: 1.6; stroke-linecap: round"/>
   </g>
   <g id="patch_48">
    <path d="M 773.642674 336.940656 
Q 797.486251 347.613397 819.697078 357.555295 
" clip-path="url(#pd8b2cafd70)" style="fill: none; stroke: #444444; stroke-width: 1.6; stroke-linecap: round"/>
    <path d="M 816.296482 353.403676 
L 819.697078 357.555295 
L 814.335425 357.784801 
z
" clip-path="url(#pd8b2cafd70)" style="fill: #444444; stroke: #444444; stroke-width: 1.6; stroke-linecap: round"/>
   </g>
   <g id="patch_49">
    <path d="M 830.877995 370.328644 
Q 836.517013 399.46532 841.81613 426.845731 
" clip-path="url(#pd8b2cafd70)" style="fill: none; stroke: #444444; stroke-width: 1.6; stroke-linecap: round"/>
    <path d="M 843.260354 421.677151 
L 841.81613 426.845731 
L 838.547801 422.589204 
z
" clip-path="url(#pd8b2cafd70)" style="fill: #444444; stroke: #444444; stroke-width: 1.6; stroke-linecap: round"/>
   </g>
   <g id="patch_50">
    <path d="M 829.425034 353.165206 
Q 830.297053 314.077085 831.129173 276.777374 
" clip-path="url(#pd8b2cafd70)" style="fill: none; stroke: #444444; stroke-width: 1.6; stroke-linecap: round"/>
    <path d="M 828.622714 281.522651 
L 831.129173 276.777374 
L 833.42152 281.629708 
z
" clip-path="url(#pd8b2cafd70)" style="fill: #444444; stroke: #444444; stroke-width: 1.6; stroke-linecap: round"/>
   </g>
   <g id="patch_51">
    <path d="M 845.463292 428.610663 
Q 852.362252 393.314206 858.91806 359.773382 
" clip-path="url(#pd8b2cafd70)" style="fill: none; stroke: #444444; stroke-width: 1.6; stroke-linecap: round"/>
    <path d="M 855.641859 364.023853 
L 858.91806 359.773382 
L 860.352716 364.944626 
z
" clip-path="url(#pd8b2cafd70)" style="fill: #444444; stroke: #444444; stroke-width: 1.6; stroke-linecap: round"/>
   </g>
   <g id="patch_52">
    <path d="M 858.022537 341.354871 
Q 846.143037 307.925451 834.86253 276.181621 
" clip-path="url(#pd8b2cafd70)" style="fill: none; stroke: #444444; stroke-width: 1.6; stroke-linecap: round"/>
    <path d="M 834.208339 281.508161 
L 834.86253 276.181621 
L 838.731248 279.900898 
z
" clip-path="url(#pd8b2cafd70)" style="fill: #444444; stroke: #444444; stroke-width: 1.6; stroke-linecap: round"/>
   </g>
   <g id="patch_53">
    <path d="M 627.016216 436.970857 
C 630.738182 436.970857 634.308207 435.89121 636.940034 433.969694 
C 639.571862 432.048179 641.050614 429.441679 641.050614 426.724246 
C 641.050614 424.006813 639.571862 421.400313 636.940034 419.478797 
C 634.308207 417.557282 630.738182 416.477634 627.016216 416.477634 
C 623.29425 416.477634 619.724226 417.557282 617.092398 419.478797 
C 614.460571 421.400313 612.981818 424.006813 612.981818 426.724246 
C 612.981818 429.441679 614.460571 432.048179 617.092398 433.969694 
C 619.724226 435.89121 623.29425 436.970857 627.016216 436.970857 
L 627.016216 436.970857 
z
" clip-path="url(#pd8b2cafd70)" style="fill: none; stroke-dasharray: 6,4; stroke-dashoffset: 0; stroke: #d62728; stroke-width: 2; stroke-linejoin: miter"/>
   </g>
   <g id="PathCollection_13">
    <g clip-path="url(#pd8b2cafd70)">
     <use xlink:href="#mcbaf11e2dd" x="698.377442" y="385.448187" style="fill: #1f77b4; stroke: #222222; stroke-width: 1.2"/>
     <use xlink:href="#mcbaf11e2dd" x="829.231882" y="361.823216" style="fill: #1f77b4; stroke: #222222; stroke-width: 1.2"/>
     <use xlink:href="#mcbaf11e2dd" x="843.802339" y="437.10843" style="fill: #1f77b4; stroke: #222222; stroke-width: 1.2"/>
     <use xlink:href="#mcbaf11e2dd" x="860.92285" y="349.516476" style="fill: #1f77b4; stroke: #222222; stroke-width: 1.2"/>
    </g>
   </g>
   <g id="PathCollection_14">
    <g clip-path="url(#pd8b2cafd70)">
     <use xlink:href="#m3c3e2499ee" x="765.741217" y="333.403846" style="fill: #ffffff; stroke: #9e9e9e; stroke-width: 2"/>
     <use xlink:href="#m3c3e2499ee" x="831.362209" y="266.33157" style="fill: #ffffff; stroke: #9e9e9e; stroke-width: 2"/>
    </g>
   </g>
   <g id="PathCollection_15">
    <g clip-path="url(#pd8b2cafd70)">
     <use xlink:href="#m17fb7f5a7f" x="627.016216" y="426.724246" style="fill: #ffffff; stroke: #d62728; stroke-width: 2"/>
    </g>
   </g>
   <g id="text_6">
    <g id="patch_54">
     <path d="M 605.712 264.210925 
L 643.676062 264.210925 
Q 645.676062 264.210925 645.676062 262.210925 
L 645.676062 252.5328 
Q 645.676062 250.5328 643.676062 250.5328 
L 605.712 250.5328 
Q 603.712 250.5328 603.712 252.5328 
L 603.712 262.210925 
Q 603.712 264.210925 605.712 264.210925 
z
" style="fill: #ffffff; opacity: 0.95; stroke: #444444; stroke-linejoin: miter"/>
    </g>
    <!-- U=0.55 -->
    <g transform="translate(605.712 260.131237) scale(0.1 -0.1)">
     <defs>
      <path id="DejaVuSans-35" d="M 691 4666 
L 3169 4666 
L 3169 4134 
L 1269 4134 
L 1269 2991 
Q 1406 3038 1543 3061 
Q 1681 3084 1819 3084 
Q 2600 3084 3056 2656 
Q 3513 2228 3513 1497 
Q 3513 744 3044 326 
Q 2575 -91 1722 -91 
Q 1428 -91 1123 -41 
Q 819 9 494 109 
L 494 744 
Q 775 591 1075 516 
Q 1375 441 1709 441 
Q 2250 441 2565 725 
Q 2881 1009 2881 1497 
Q 2881 1984 2565 2268 
Q 2250 2553 1709 2553 
Q 1456 2553 1204 2497 
Q 953 2441 691 2322 
L 691 4666 
z
" transform="scale(0.015625)"/>
     </defs>
     <use xlink:href="#DejaVuSans-55"/>
     <use xlink:href="#DejaVuSans-3d" x="73.193359"/>
     <use xlink:href="#DejaVuSans-30" x="156.982422"/>
     <use xlink:href="#DejaVuSans-2e" x="220.605469"/>
     <use xlink:href="#DejaVuSans-35" x="252.392578"/>
     <use xlink:href="#DejaVuSans-35" x="316.015625"/>
    </g>
   </g>
  </g>
  <g id="text_7">
   <!-- Framework Applies to Diverse Pathways with Variable Topologies and Missingness -->
   <g transform="translate(201.014062 16.318125) scale(0.12 -0.12)">
    <defs>
     <path id="DejaVuSans-46" d="M 628 4666 
L 3309 4666 
L 3309 4134 
L 1259 4134 
L 1259 2759 
L 3109 2759 
L 3109 2228 
L 1259 2228 
L 1259 0 
L 628 0 
L 628 4666 
z
" transform="scale(0.015625)"/>
     <path id="DejaVuSans-72" d="M 2631 2963 
Q 2534 3019 2420 3045 
Q 2306 3072 2169 3072 
Q 1681 3072 1420 2755 
Q 1159 2438 1159 1844 
L 1159 0 
L 581 0 
L 581 3500 
L 1159 3500 
L 1159 2956 
Q 1341 3275 1631 3429 
Q 1922 3584 2338 3584 
Q 2397 3584 2469 3576 
Q 2541 3569 2628 3553 
L 2631 2963 
z
" transform="scale(0.015625)"/>
     <path id="DejaVuSans-61" d="M 2194 1759 
Q 1497 1759 1228 1600 
Q 959 1441 959 1056 
Q 959 750 1161 570 
Q 1363 391 1709 391 
Q 2188 391 2477 730 
Q 2766 1069 2766 1631 
L 2766 1759 
L 2194 1759 
z
M 3341 1997 
L 3341 0 
L 2766 0 
L 2766 531 
Q 2569 213 2275 61 
Q 1981 -91 1556 -91 
Q 1019 -91 701 211 
Q 384 513 384 1019 
Q 384 1609 779 1909 
Q 1175 2209 1959 2209 
L 2766 2209 
L 2766 2266 
Q 2766 2663 2505 2880 
Q 2244 3097 1772 3097 
Q 1472 3097 1187 3025 
Q 903 2953 641 2809 
L 641 3341 
Q 956 3463 1253 3523 
Q 1550 3584 1831 3584 
Q 2591 3584 2966 3190 
Q 3341 2797 3341 1997 
z
" transform="scale(0.015625)"/>
     <path id="DejaVuSans-6d" d="M 3328 2828 
Q 3544 3216 3844 3400 
Q 4144 3584 4550 3584 
Q 5097 3584 5394 3201 
Q 5691 2819 5691 2113 
L 5691 0 
L 5113 0 
L 5113 2094 
Q 5113 2597 4934 2840 
Q 4756 3084 4391 3084 
Q 3944 3084 3684 2787 
Q 3425 2491 3425 1978 
L 3425 0 
L 2847 0 
L 2847 2094 
Q 2847 2600 2669 2842 
Q 2491 3084 2119 3084 
Q 1678 3084 1418 2786 
Q 1159 2488 1159 1978 
L 1159 0 
L 581 0 
L 581 3500 
L 1159 3500 
L 1159 2956 
Q 1356 3278 1631 3431 
Q 1906 3584 2284 3584 
Q 2666 3584 2933 3390 
Q 3200 3197 3328 2828 
z
" transform="scale(0.015625)"/>
     <path id="DejaVuSans-65" d="M 3597 1894 
L 3597 1613 
L 953 1613 
Q 991 1019 1311 708 
Q 1631 397 2203 397 
Q 2534 397 2845 478 
Q 3156 559 3463 722 
L 3463 178 
Q 3153 47 2828 -22 
Q 2503 -91 2169 -91 
Q 1331 -91 842 396 
Q 353 884 353 1716 
Q 353 2575 817 3079 
Q 1281 3584 2069 3584 
Q 2775 3584 3186 3129 
Q 3597 2675 3597 1894 
z
M 3022 2063 
Q 3016 2534 2758 2815 
Q 2500 3097 2075 3097 
Q 1594 3097 1305 2825 
Q 1016 2553 972 2059 
L 3022 2063 
z
" transform="scale(0.015625)"/>
     <path id="DejaVuSans-77" d="M 269 3500 
L 844 3500 
L 1563 769 
L 2278 3500 
L 2956 3500 
L 3675 769 
L 4391 3500 
L 4966 3500 
L 4050 0 
L 3372 0 
L 2619 2869 
L 1863 0 
L 1184 0 
L 269 3500 
z
" transform="scale(0.015625)"/>
     <path id="DejaVuSans-6f" d="M 1959 3097 
Q 1497 3097 1228 2736 
Q 959 2375 959 1747 
Q 959 1119 1226 758 
Q 1494 397 1959 397 
Q 2419 397 2687 759 
Q 2956 1122 2956 1747 
Q 2956 2369 2687 2733 
Q 2419 3097 1959 3097 
z
M 1959 3584 
Q 2709 3584 3137 3096 
Q 3566 2609 3566 1747 
Q 3566 888 3137 398 
Q 2709 -91 1959 -91 
Q 1206 -91 779 398 
Q 353 888 353 1747 
Q 353 2609 779 3096 
Q 1206 3584 1959 3584 
z
" transform="scale(0.015625)"/>
     <path id="DejaVuSans-6b" d="M 581 4863 
L 1159 4863 
L 1159 1991 
L 2875 3500 
L 3609 3500 
L 1753 1863 
L 3688 0 
L 2938 0 
L 1159 1709 
L 1159 0 
L 581 0 
L 581 4863 
z
" transform="scale(0.015625)"/>
     <path id="DejaVuSans-20" transform="scale(0.015625)"/>
     <path id="DejaVuSans-41" d="M 2188 4044 
L 1331 1722 
L 3047 1722 
L 2188 4044 
z
M 1831 4666 
L 2547 4666 
L 4325 0 
L 3669 0 
L 3244 1197 
L 1141 1197 
L 716 0 
L 50 0 
L 1831 4666 
z
" transform="scale(0.015625)"/>
     <path id="DejaVuSans-70" d="M 1159 525 
L 1159 -1331 
L 581 -1331 
L 581 3500 
L 1159 3500 
L 1159 2969 
Q 1341 3281 1617 3432 
Q 1894 3584 2278 3584 
Q 2916 3584 3314 3078 
Q 3713 2572 3713 1747 
Q 3713 922 3314 415 
Q 2916 -91 2278 -91 
Q 1894 -91 1617 61 
Q 1341 213 1159 525 
z
M 3116 1747 
Q 3116 2381 2855 2742 
Q 2594 3103 2138 3103 
Q 1681 3103 1420 2742 
Q 1159 2381 1159 1747 
Q 1159 1113 1420 752 
Q 1681 391 2138 391 
Q 2594 391 2855 752 
Q 3116 1113 3116 1747 
z
" transform="scale(0.015625)"/>
     <path id="DejaVuSans-6c" d="M 603 4863 
L 1178 4863 
L 1178 0 
L 603 0 
L 603 4863 
z
" transform="scale(0.015625)"/>
     <path id="DejaVuSans-69" d="M 603 3500 
L 1178 3500 
L 1178 0 
L 603 0 
L 603 3500 
z
M 603 4863 
L 1178 4863 
L 1178 4134 
L 603 4134 
L 603 4863 
z
" transform="scale(0.015625)"/>
     <path id="DejaVuSans-73" d="M 2834 3397 
L 2834 2853 
Q 2591 2978 2328 3040 
Q 2066 3103 1784 3103 
Q 1356 3103 1142 2972 
Q 928 2841 928 2578 
Q 928 2378 1081 2264 
Q 1234 2150 1697 2047 
L 1894 2003 
Q 2506 1872 2764 1633 
Q 3022 1394 3022 966 
Q 3022 478 2636 193 
Q 2250 -91 1575 -91 
Q 1294 -91 989 -36 
Q 684 19 347 128 
L 347 722 
Q 666 556 975 473 
Q 1284 391 1588 391 
Q 1994 391 2212 530 
Q 2431 669 2431 922 
Q 2431 1156 2273 1281 
Q 2116 1406 1581 1522 
L 1381 1569 
Q 847 1681 609 1914 
Q 372 2147 372 2553 
Q 372 3047 722 3315 
Q 1072 3584 1716 3584 
Q 2034 3584 2315 3537 
Q 2597 3491 2834 3397 
z
" transform="scale(0.015625)"/>
     <path id="DejaVuSans-74" d="M 1172 4494 
L 1172 3500 
L 2356 3500 
L 2356 3053 
L 1172 3053 
L 1172 1153 
Q 1172 725 1289 603 
Q 1406 481 1766 481 
L 2356 481 
L 2356 0 
L 1766 0 
Q 1100 0 847 248 
Q 594 497 594 1153 
L 594 3053 
L 172 3053 
L 172 3500 
L 594 3500 
L 594 4494 
L 1172 4494 
z
" transform="scale(0.015625)"/>
     <path id="DejaVuSans-44" d="M 1259 4147 
L 1259 519 
L 2022 519 
Q 2988 519 3436 956 
Q 3884 1394 3884 2338 
Q 3884 3275 3436 3711 
Q 2988 4147 2022 4147 
L 1259 4147 
z
M 628 4666 
L 1925 4666 
Q 3281 4666 3915 4102 
Q 4550 3538 4550 2338 
Q 4550 1131 3912 565 
Q 3275 0 1925 0 
L 628 0 
L 628 4666 
z
" transform="scale(0.015625)"/>
     <path id="DejaVuSans-76" d="M 191 3500 
L 800 3500 
L 1894 563 
L 2988 3500 
L 3597 3500 
L 2284 0 
L 1503 0 
L 191 3500 
z
" transform="scale(0.015625)"/>
     <path id="DejaVuSans-50" d="M 1259 4147 
L 1259 2394 
L 2053 2394 
Q 2494 2394 2734 2622 
Q 2975 2850 2975 3272 
Q 2975 3691 2734 3919 
Q 2494 4147 2053 4147 
L 1259 4147 
z
M 628 4666 
L 2053 4666 
Q 2838 4666 3239 4311 
Q 3641 3956 3641 3272 
Q 3641 2581 3239 2228 
Q 2838 1875 2053 1875 
L 1259 1875 
L 1259 0 
L 628 0 
L 628 4666 
z
" transform="scale(0.015625)"/>
     <path id="DejaVuSans-68" d="M 3513 2113 
L 3513 0 
L 2938 0 
L 2938 2094 
Q 2938 2591 2744 2837 
Q 2550 3084 2163 3084 
Q 1697 3084 1428 2787 
Q 1159 2491 1159 1978 
L 1159 0 
L 581 0 
L 581 4863 
L 1159 4863 
L 1159 2956 
Q 1366 3272 1645 3428 
Q 1925 3584 2291 3584 
Q 2894 3584 3203 3211 
Q 3513 2838 3513 2113 
z
" transform="scale(0.015625)"/>
     <path id="DejaVuSans-79" d="M 2059 -325 
Q 1816 -950 1584 -1140 
Q 1353 -1331 966 -1331 
L 506 -1331 
L 506 -850 
L 844 -850 
Q 1081 -850 1212 -737 
Q 1344 -625 1503 -206 
L 1606 56 
L 191 3500 
L 800 3500 
L 1894 763 
L 2988 3500 
L 3597 3500 
L 2059 -325 
z
" transform="scale(0.015625)"/>
     <path id="DejaVuSans-56" d="M 1831 0 
L 50 4666 
L 709 4666 
L 2188 738 
L 3669 4666 
L 4325 4666 
L 2547 0 
L 1831 0 
z
" transform="scale(0.015625)"/>
     <path id="DejaVuSans-62" d="M 3116 1747 
Q 3116 2381 2855 2742 
Q 2594 3103 2138 3103 
Q 1681 3103 1420 2742 
Q 1159 2381 1159 1747 
Q 1159 1113 1420 752 
Q 1681 391 2138 391 
Q 2594 391 2855 752 
Q 3116 1113 3116 1747 
z
M 1159 2969 
Q 1341 3281 1617 3432 
Q 1894 3584 2278 3584 
Q 2916 3584 3314 3078 
Q 3713 2572 3713 1747 
Q 3713 922 3314 415 
Q 2916 -91 2278 -91 
Q 1894 -91 1617 61 
Q 1341 213 1159 525 
L 1159 0 
L 581 0 
L 581 4863 
L 1159 4863 
L 1159 2969 
z
" transform="scale(0.015625)"/>
     <path id="DejaVuSans-54" d="M -19 4666 
L 3928 4666 
L 3928 4134 
L 2272 4134 
L 2272 0 
L 1638 0 
L 1638 4134 
L -19 4134 
L -19 4666 
z
" transform="scale(0.015625)"/>
     <path id="DejaVuSans-67" d="M 2906 1791 
Q 2906 2416 2648 2759 
Q 2391 3103 1925 3103 
Q 1463 3103 1205 2759 
Q 947 2416 947 1791 
Q 947 1169 1205 825 
Q 1463 481 1925 481 
Q 2391 481 2648 825 
Q 2906 1169 2906 1791 
z
M 3481 434 
Q 3481 -459 3084 -895 
Q 2688 -1331 1869 -1331 
Q 1566 -1331 1297 -1286 
Q 1028 -1241 775 -1147 
L 775 -588 
Q 1028 -725 1275 -790 
Q 1522 -856 1778 -856 
Q 2344 -856 2625 -561 
Q 2906 -266 2906 331 
L 2906 616 
Q 2728 306 2450 153 
Q 2172 0 1784 0 
Q 1141 0 747 490 
Q 353 981 353 1791 
Q 353 2603 747 3093 
Q 1141 3584 1784 3584 
Q 2172 3584 2450 3431 
Q 2728 3278 2906 2969 
L 2906 3500 
L 3481 3500 
L 3481 434 
z
" transform="scale(0.015625)"/>
     <path id="DejaVuSans-6e" d="M 3513 2113 
L 3513 0 
L 2938 0 
L 2938 2094 
Q 2938 2591 2744 2837 
Q 2550 3084 2163 3084 
Q 1697 3084 1428 2787 
Q 1159 2491 1159 1978 
L 1159 0 
L 581 0 
L 581 3500 
L 1159 3500 
L 1159 2956 
Q 1366 3272 1645 3428 
Q 1925 3584 2291 3584 
Q 2894 3584 3203 3211 
Q 3513 2838 3513 2113 
z
" transform="scale(0.015625)"/>
     <path id="DejaVuSans-64" d="M 2906 2969 
L 2906 4863 
L 3481 4863 
L 3481 0 
L 2906 0 
L 2906 525 
Q 2725 213 2448 61 
Q 2172 -91 1784 -91 
Q 1150 -91 751 415 
Q 353 922 353 1747 
Q 353 2572 751 3078 
Q 1150 3584 1784 3584 
Q 2172 3584 2448 3432 
Q 2725 3281 2906 2969 
z
M 947 1747 
Q 947 1113 1208 752 
Q 1469 391 1925 391 
Q 2381 391 2643 752 
Q 2906 1113 2906 1747 
Q 2906 2381 2643 2742 
Q 2381 3103 1925 3103 
Q 1469 3103 1208 2742 
Q 947 2381 947 1747 
z
" transform="scale(0.015625)"/>
     <path id="DejaVuSans-4d" d="M 628 4666 
L 1569 4666 
L 2759 1491 
L 3956 4666 
L 4897 4666 
L 4897 0 
L 4281 0 
L 4281 4097 
L 3078 897 
L 2444 897 
L 1241 4097 
L 1241 0 
L 628 0 
L 628 4666 
z
" transform="scale(0.015625)"/>
    </defs>
    <use xlink:href="#DejaVuSans-46"/>
    <use xlink:href="#DejaVuSans-72" x="50.269531"/>
    <use xlink:href="#DejaVuSans-61" x="91.382812"/>
    <use xlink:href="#DejaVuSans-6d" x="152.662109"/>
    <use xlink:href="#DejaVuSans-65" x="250.074219"/>
    <use xlink:href="#DejaVuSans-77" x="311.597656"/>
    <use xlink:href="#DejaVuSans-6f" x="393.384766"/>
    <use xlink:href="#DejaVuSans-72" x="454.566406"/>
    <use xlink:href="#DejaVuSans-6b" x="495.679688"/>
    <use xlink:href="#DejaVuSans-20" x="553.589844"/>
    <use xlink:href="#DejaVuSans-41" x="585.376953"/>
    <use xlink:href="#DejaVuSans-70" x="653.785156"/>
    <use xlink:href="#DejaVuSans-70" x="717.261719"/>
    <use xlink:href="#DejaVuSans-6c" x="780.738281"/>
    <use xlink:href="#DejaVuSans-69" x="808.521484"/>
    <use xlink:href="#DejaVuSans-65" x="836.304688"/>
    <use xlink:href="#DejaVuSans-73" x="897.828125"/>
    <use xlink:href="#DejaVuSans-20" x="949.927734"/>
    <use xlink:href="#DejaVuSans-74" x="981.714844"/>
    <use xlink:href="#DejaVuSans-6f" x="1020.923828"/>
    <use xlink:href="#DejaVuSans-20" x="1082.105469"/>
    <use xlink:href="#DejaVuSans-44" x="1113.892578"/>
    <use xlink:href="#DejaVuSans-69" x="1190.894531"/>
    <use xlink:href="#DejaVuSans-76" x="1218.677734"/>
    <use xlink:href="#DejaVuSans-65" x="1277.857422"/>
    <use xlink:href="#DejaVuSans-72" x="1339.380859"/>
    <use xlink:href="#DejaVuSans-73" x="1380.494141"/>
    <use xlink:href="#DejaVuSans-65" x="1432.59375"/>
    <use xlink:href="#DejaVuSans-20" x="1494.117188"/>
    <use xlink:href="#DejaVuSans-50" x="1525.904297"/>
    <use xlink:href="#DejaVuSans-61" x="1581.707031"/>
    <use xlink:href="#DejaVuSans-74" x="1642.986328"/>
    <use xlink:href="#DejaVuSans-68" x="1682.195312"/>
    <use xlink:href="#DejaVuSans-77" x="1745.574219"/>
    <use xlink:href="#DejaVuSans-61" x="1827.361328"/>
    <use xlink:href="#DejaVuSans-79" x="1888.640625"/>
    <use xlink:href="#DejaVuSans-73" x="1947.820312"/>
    <use xlink:href="#DejaVuSans-20" x="1999.919922"/>
    <use xlink:href="#DejaVuSans-77" x="2031.707031"/>
    <use xlink:href="#DejaVuSans-69" x="2113.494141"/>
    <use xlink:href="#DejaVuSans-74" x="2141.277344"/>
    <use xlink:href="#DejaVuSans-68" x="2180.486328"/>
    <use xlink:href="#DejaVuSans-20" x="2243.865234"/>
    <use xlink:href="#DejaVuSans-56" x="2275.652344"/>
    <use xlink:href="#DejaVuSans-61" x="2336.310547"/>
    <use xlink:href="#DejaVuSans-72" x="2397.589844"/>
    <use xlink:href="#DejaVuSans-69" x="2438.703125"/>
    <use xlink:href="#DejaVuSans-61" x="2466.486328"/>
    <use xlink:href="#DejaVuSans-62" x="2527.765625"/>
    <use xlink:href="#DejaVuSans-6c" x="2591.242188"/>
    <use xlink:href="#DejaVuSans-65" x="2619.025391"/>
    <use xlink:href="#DejaVuSans-20" x="2680.548828"/>
    <use xlink:href="#DejaVuSans-54" x="2712.335938"/>
    <use xlink:href="#DejaVuSans-6f" x="2756.419922"/>
    <use xlink:href="#DejaVuSans-70" x="2817.601562"/>
    <use xlink:href="#DejaVuSans-6f" x="2881.078125"/>
    <use xlink:href="#DejaVuSans-6c" x="2942.259766"/>
    <use xlink:href="#DejaVuSans-6f" x="2970.042969"/>
    <use xlink:href="#DejaVuSans-67" x="3031.224609"/>
    <use xlink:href="#DejaVuSans-69" x="3094.701172"/>
    <use xlink:href="#DejaVuSans-65" x="3122.484375"/>
    <use xlink:href="#DejaVuSans-73" x="3184.007812"/>
    <use xlink:href="#DejaVuSans-20" x="3236.107422"/>
    <use xlink:href="#DejaVuSans-61" x="3267.894531"/>
    <use xlink:href="#DejaVuSans-6e" x="3329.173828"/>
    <use xlink:href="#DejaVuSans-64" x="3392.552734"/>
    <use xlink:href="#DejaVuSans-20" x="3456.029297"/>
    <use xlink:href="#DejaVuSans-4d" x="3487.816406"/>
    <use xlink:href="#DejaVuSans-69" x="3574.095703"/>
    <use xlink:href="#DejaVuSans-73" x="3601.878906"/>
    <use xlink:href="#DejaVuSans-73" x="3653.978516"/>
    <use xlink:href="#DejaVuSans-69" x="3706.078125"/>
    <use xlink:href="#DejaVuSans-6e" x="3733.861328"/>
    <use xlink:href="#DejaVuSans-67" x="3797.240234"/>
    <use xlink:href="#DejaVuSans-6e" x="3860.716797"/>
    <use xlink:href="#DejaVuSans-65" x="3924.095703"/>
    <use xlink:href="#DejaVuSans-73" x="3985.619141"/>
    <use xlink:href="#DejaVuSans-73" x="4037.71875"/>
   </g>
  </g>
 </g>
 <defs>
  <clipPath id="pc901902448">
   <rect x="7.2" y="30.96" width="285.6" height="206.64"/>
  </clipPath>
  <clipPath id="p64f1107e51">
   <rect x="303.6" y="30.96" width="285.6" height="206.64"/>
  </clipPath>
  <clipPath id="p269bd40acd">
   <rect x="600" y="30.96" width="285.6" height="206.64"/>
  </clipPath>
  <clipPath id="pf419523846">
   <rect x="7.2" y="248.4" width="285.6" height="206.64"/>
  </clipPath>
  <clipPath id="p6fc21f27b9">
   <rect x="303.6" y="248.4" width="285.6" height="206.64"/>
  </clipPath>
  <clipPath id="pd8b2cafd70">
   <rect x="600" y="248.4" width="285.6" height="206.64"/>
  </clipPath>
 </defs>
</svg>
